  0
SECTION
  2
HEADER
  9
$ACADVER
  1
AC1027
  9
$ACADMAINTVER
 70
   125
  9
$DWGCODEPAGE
  3
ANSI_1252
  9
$LASTSAVEDBY
  1
Wenoa
  9
$REQUIREDVERSIONS
160
                 0
  9
$INSBASE
 10
0.0
 20
0.0
 30
0.0
  9
$EXTMIN
 10
-21.25875003784105
 20
-24.57289656936667
 30
0.0
  9
$EXTMAX
 10
87.55856366666662
 20
33.01337127097264
 30
0.0
  9
$LIMMIN
 10
0.0
 20
0.0
  9
$LIMMAX
 10
420.0
 20
297.0
  9
$ORTHOMODE
 70
     0
  9
$REGENMODE
 70
     1
  9
$FILLMODE
 70
     1
  9
$QTEXTMODE
 70
     0
  9
$MIRRTEXT
 70
     1
  9
$LTSCALE
 40
1.0
  9
$ATTMODE
 70
     1
  9
$TEXTSIZE
 40
3.5
  9
$TRACEWID
 40
1.0
  9
$TEXTSTYLE
  7
Standard
  9
$CLAYER
  8
0
  9
$CELTYPE
  6
ByLayer
  9
$CECOLOR
 62
   256
  9
$CELTSCALE
 40
1.0
  9
$DISPSILH
 70
     0
  9
$DIMSCALE
 40
1.0
  9
$DIMASZ
 40
3.302
  9
$DIMEXO
 40
1.27
  9
$DIMDLI
 40
3.75
  9
$DIMRND
 40
0.0
  9
$DIMDLE
 40
0.0
  9
$DIMEXE
 40
3.174999999999999
  9
$DIMTP
 40
0.0
  9
$DIMTM
 40
0.0
  9
$DIMTXT
 40
3.5
  9
$DIMCEN
 40
2.5
  9
$DIMTSZ
 40
0.0
  9
$DIMTOL
 70
     0
  9
$DIMLIM
 70
     0
  9
$DIMTIH
 70
     1
  9
$DIMTOH
 70
     1
  9
$DIMSE1
 70
     0
  9
$DIMSE2
 70
     0
  9
$DIMTAD
 70
     1
  9
$DIMZIN
 70
     0
  9
$DIMBLK
  1

  9
$DIMASO
 70
     1
  9
$DIMSHO
 70
     1
  9
$DIMPOST
  1

  9
$DIMAPOST
  1

  9
$DIMALT
 70
     0
  9
$DIMALTD
 70
     3
  9
$DIMALTF
 40
0.0393700787
  9
$DIMLFAC
 40
1.0
  9
$DIMTOFL
 70
     1
  9
$DIMTVP
 40
0.0
  9
$DIMTIX
 70
     0
  9
$DIMSOXD
 70
     0
  9
$DIMSAH
 70
     0
  9
$DIMBLK1
  1

  9
$DIMBLK2
  1

  9
$DIMSTYLE
  2
ISO-25
  9
$DIMCLRD
 70
     0
  9
$DIMCLRE
 70
     0
  9
$DIMCLRT
 70
     0
  9
$DIMTFAC
 40
1.0
  9
$DIMGAP
 40
1.524
  9
$DIMJUST
 70
     0
  9
$DIMSD1
 70
     0
  9
$DIMSD2
 70
     0
  9
$DIMTOLJ
 70
     0
  9
$DIMTZIN
 70
     0
  9
$DIMALTZ
 70
     0
  9
$DIMALTTZ
 70
     0
  9
$DIMUPT
 70
     0
  9
$DIMDEC
 70
     2
  9
$DIMTDEC
 70
     2
  9
$DIMALTU
 70
     2
  9
$DIMALTTD
 70
     3
  9
$DIMTXSTY
  7
Standard
  9
$DIMAUNIT
 70
     0
  9
$DIMADEC
 70
     2
  9
$DIMALTRND
 40
0.0
  9
$DIMAZIN
 70
     0
  9
$DIMDSEP
 70
    44
  9
$DIMATFIT
 70
     3
  9
$DIMFRAC
 70
     0
  9
$DIMLDRBLK
  1

  9
$DIMLUNIT
 70
     2
  9
$DIMLWD
 70
    -2
  9
$DIMLWE
 70
    -2
  9
$DIMTMOVE
 70
     0
  9
$DIMFXL
 40
1.0
  9
$DIMFXLON
 70
     0
  9
$DIMJOGANG
 40
0.7853981633974483
  9
$DIMTFILL
 70
     0
  9
$DIMTFILLCLR
 70
     0
  9
$DIMARCSYM
 70
     0
  9
$DIMLTYPE
  6

  9
$DIMLTEX1
  6

  9
$DIMLTEX2
  6

  9
$DIMTXTDIRECTION
 70
     0
  9
$LUNITS
 70
     2
  9
$LUPREC
 70
     2
  9
$SKETCHINC
 40
1.0
  9
$FILLETRAD
 40
10.0
  9
$AUNITS
 70
     0
  9
$AUPREC
 70
     2
  9
$MENU
  1
.
  9
$ELEVATION
 40
0.0
  9
$PELEVATION
 40
0.0
  9
$THICKNESS
 40
0.0
  9
$LIMCHECK
 70
     0
  9
$CHAMFERA
 40
0.0
  9
$CHAMFERB
 40
0.0
  9
$CHAMFERC
 40
0.0
  9
$CHAMFERD
 40
0.0
  9
$SKPOLY
 70
     0
  9
$TDCREATE
 40
2458158.556296297
  9
$TDUCREATE
 40
2458158.889638380
  9
$TDUPDATE
 40
2458158.588449074
  9
$TDUUPDATE
 40
2458158.921782407
  9
$TDINDWG
 40
0.0059722338
  9
$TDUSRTIMER
 40
0.0059722338
  9
$USRTIMER
 70
     1
  9
$ANGBASE
 50
0.0
  9
$ANGDIR
 70
     0
  9
$PDMODE
 70
     0
  9
$PDSIZE
 40
-1.0
  9
$PLINEWID
 40
0.0
  9
$SPLFRAME
 70
     0
  9
$SPLINETYPE
 70
     6
  9
$SPLINESEGS
 70
     8
  9
$HANDSEED
  5
23A
  9
$SURFTAB1
 70
     6
  9
$SURFTAB2
 70
     6
  9
$SURFTYPE
 70
     6
  9
$SURFU
 70
     6
  9
$SURFV
 70
     6
  9
$UCSBASE
  2

  9
$UCSNAME
  2

  9
$UCSORG
 10
0.0
 20
0.0
 30
0.0
  9
$UCSXDIR
 10
1.0
 20
0.0
 30
0.0
  9
$UCSYDIR
 10
0.0
 20
1.0
 30
0.0
  9
$UCSORTHOREF
  2

  9
$UCSORTHOVIEW
 70
     0
  9
$UCSORGTOP
 10
0.0
 20
0.0
 30
0.0
  9
$UCSORGBOTTOM
 10
0.0
 20
0.0
 30
0.0
  9
$UCSORGLEFT
 10
0.0
 20
0.0
 30
0.0
  9
$UCSORGRIGHT
 10
0.0
 20
0.0
 30
0.0
  9
$UCSORGFRONT
 10
0.0
 20
0.0
 30
0.0
  9
$UCSORGBACK
 10
0.0
 20
0.0
 30
0.0
  9
$PUCSBASE
  2

  9
$PUCSNAME
  2

  9
$PUCSORG
 10
0.0
 20
0.0
 30
0.0
  9
$PUCSXDIR
 10
1.0
 20
0.0
 30
0.0
  9
$PUCSYDIR
 10
0.0
 20
1.0
 30
0.0
  9
$PUCSORTHOREF
  2

  9
$PUCSORTHOVIEW
 70
     0
  9
$PUCSORGTOP
 10
0.0
 20
0.0
 30
0.0
  9
$PUCSORGBOTTOM
 10
0.0
 20
0.0
 30
0.0
  9
$PUCSORGLEFT
 10
0.0
 20
0.0
 30
0.0
  9
$PUCSORGRIGHT
 10
0.0
 20
0.0
 30
0.0
  9
$PUCSORGFRONT
 10
0.0
 20
0.0
 30
0.0
  9
$PUCSORGBACK
 10
0.0
 20
0.0
 30
0.0
  9
$USERI1
 70
     0
  9
$USERI2
 70
     0
  9
$USERI3
 70
     0
  9
$USERI4
 70
     0
  9
$USERI5
 70
     0
  9
$USERR1
 40
0.0
  9
$USERR2
 40
0.0
  9
$USERR3
 40
0.0
  9
$USERR4
 40
0.0
  9
$USERR5
 40
0.0
  9
$WORLDVIEW
 70
     1
  9
$SHADEDGE
 70
     3
  9
$SHADEDIF
 70
    70
  9
$TILEMODE
 70
     1
  9
$MAXACTVP
 70
    64
  9
$PINSBASE
 10
0.0
 20
0.0
 30
0.0
  9
$PLIMCHECK
 70
     0
  9
$PEXTMIN
 10
1.000000000000000E+20
 20
1.000000000000000E+20
 30
1.000000000000000E+20
  9
$PEXTMAX
 10
-1.000000000000000E+20
 20
-1.000000000000000E+20
 30
-1.000000000000000E+20
  9
$PLIMMIN
 10
0.0
 20
0.0
  9
$PLIMMAX
 10
420.0
 20
297.0
  9
$UNITMODE
 70
     0
  9
$VISRETAIN
 70
     1
  9
$PLINEGEN
 70
     0
  9
$PSLTSCALE
 70
     1
  9
$TREEDEPTH
 70
  3020
  9
$CMLSTYLE
  2
Standard
  9
$CMLJUST
 70
     0
  9
$CMLSCALE
 40
20.0
  9
$PROXYGRAPHICS
 70
     1
  9
$MEASUREMENT
 70
     1
  9
$CELWEIGHT
370
    -1
  9
$ENDCAPS
280
     0
  9
$JOINSTYLE
280
     0
  9
$LWDISPLAY
290
     1
  9
$INSUNITS
 70
     4
  9
$HYPERLINKBASE
  1

  9
$STYLESHEET
  1

  9
$XEDIT
290
     1
  9
$CEPSNTYPE
380
     0
  9
$PSTYLEMODE
290
     1
  9
$FINGERPRINTGUID
  2
{88B6F493-D273-44D1-B779-0849684A02E3}
  9
$VERSIONGUID
  2
{6311EA22-EA1B-1145-904F-1A962D683100}
  9
$EXTNAMES
290
     1
  9
$PSVPSCALE
 40
0.0
  9
$OLESTARTUP
290
     0
  9
$SORTENTS
280
   127
  9
$INDEXCTL
280
     0
  9
$HIDETEXT
280
     0
  9
$XCLIPFRAME
280
     2
  9
$HALOGAP
280
     0
  9
$OBSCOLOR
 70
   257
  9
$OBSLTYPE
280
     0
  9
$INTERSECTIONDISPLAY
280
     0
  9
$INTERSECTIONCOLOR
 70
   257
  9
$DIMASSOC
280
     1
  9
$PROJECTNAME
  1

  9
$CAMERADISPLAY
290
     0
  9
$LENSLENGTH
 40
50.0
  9
$CAMERAHEIGHT
 40
0.0
  9
$STEPSPERSEC
 40
2.0
  9
$STEPSIZE
 40
6.0
  9
$3DDWFPREC
 40
2.0
  9
$PSOLWIDTH
 40
0.25
  9
$PSOLHEIGHT
 40
4.0
  9
$LOFTANG1
 40
1.570796326794896
  9
$LOFTANG2
 40
1.570796326794896
  9
$LOFTMAG1
 40
0.0
  9
$LOFTMAG2
 40
0.0
  9
$LOFTPARAM
 70
     7
  9
$LOFTNORMALS
280
     1
  9
$LATITUDE
 40
37.795
  9
$LONGITUDE
 40
-122.394
  9
$NORTHDIRECTION
 40
0.0
  9
$TIMEZONE
 70
 -8000
  9
$LIGHTGLYPHDISPLAY
280
     1
  9
$TILEMODELIGHTSYNCH
280
     1
  9
$CMATERIAL
347
AC
  9
$SOLIDHIST
280
     0
  9
$SHOWHIST
280
     1
  9
$DWFFRAME
280
     2
  9
$DGNFRAME
280
     0
  9
$REALWORLDSCALE
290
     1
  9
$INTERFERECOLOR
 62
     1
  9
$INTERFEREOBJVS
345
CE
  9
$INTERFEREVPVS
346
CB
  9
$CSHADOW
280
     0
  9
$SHADOWPLANELOCATION
 40
0.0
  0
ENDSEC
  0
SECTION
  2
CLASSES
  0
CLASS
  1
ACDBDICTIONARYWDFLT
  2
AcDbDictionaryWithDefault
  3
ObjectDBX Classes
 90
        0
 91
        1
280
     0
281
     0
  0
CLASS
  1
VISUALSTYLE
  2
AcDbVisualStyle
  3
ObjectDBX Classes
 90
     4095
 91
       24
280
     0
281
     0
  0
CLASS
  1
MATERIAL
  2
AcDbMaterial
  3
ObjectDBX Classes
 90
     1153
 91
        3
280
     0
281
     0
  0
CLASS
  1
SCALE
  2
AcDbScale
  3
ObjectDBX Classes
 90
     1153
 91
       33
280
     0
281
     0
  0
CLASS
  1
TABLESTYLE
  2
AcDbTableStyle
  3
ObjectDBX Classes
 90
     4095
 91
        1
280
     0
281
     0
  0
CLASS
  1
MLEADERSTYLE
  2
AcDbMLeaderStyle
  3
ACDB_MLEADERSTYLE_CLASS
 90
     4095
 91
        1
280
     0
281
     0
  0
CLASS
  1
SUN
  2
AcDbSun
  3
SCENEOE
 90
     1153
 91
        0
280
     0
281
     0
  0
CLASS
  1
ACDBSECTIONVIEWSTYLE
  2
AcDbSectionViewStyle
  3
ObjectDBX Classes
 90
     1025
 91
        1
280
     0
281
     0
  0
CLASS
  1
ACDBDETAILVIEWSTYLE
  2
AcDbDetailViewStyle
  3
ObjectDBX Classes
 90
     1025
 91
        1
280
     0
281
     0
  0
CLASS
  1
DICTIONARYVAR
  2
AcDbDictionaryVar
  3
ObjectDBX Classes
 90
        0
 91
        9
280
     0
281
     0
  0
CLASS
  1
CELLSTYLEMAP
  2
AcDbCellStyleMap
  3
ObjectDBX Classes
 90
     1152
 91
        1
280
     0
281
     0
  0
ENDSEC
  0
SECTION
  2
TABLES
  0
TABLE
  2
VPORT
  5
8
330
0
100
AcDbSymbolTable
 70
     1
1001
ACAD
1000
DbSaveVer
1071
        5
  0
VPORT
  5
29
330
8
100
AcDbSymbolTableRecord
100
AcDbViewportTableRecord
  2
*Active
 70
     0
 10
0.0
 20
0.0
 11
1.0
 21
1.0
 12
-17.45289260060228
 22
7.736982081112522
 13
0.0
 23
0.0
 14
10.0
 24
10.0
 15
10.0
 25
10.0
 16
0.0
 26
0.0
 36
1.0
 17
0.0
 27
0.0
 37
0.0
 40
107.9287044763886
 41
1.922123893805309
 42
50.0
 43
0.0
 44
0.0
 50
0.0
 51
0.0
 71
     0
 72
   100
 73
     1
 74
     3
 75
     0
 76
     0
 77
     0
 78
     0
281
     0
 65
     1
110
0.0
120
0.0
130
0.0
111
1.0
121
0.0
131
0.0
112
0.0
122
1.0
132
0.0
 79
     0
146
0.0
348
CA
 60
     3
 61
     5
292
     1
282
     1
141
0.0
142
0.0
 63
   250
421
  3355443
1001
ACAD_NAV_VCDISPLAY
1070
     3
  0
ENDTAB
  0
TABLE
  2
LTYPE
  5
5
330
0
100
AcDbSymbolTable
 70
     6
  0
LTYPE
  5
14
330
5
100
AcDbSymbolTableRecord
100
AcDbLinetypeTableRecord
  2
ByBlock
 70
     0
  3

 72
    65
 73
     0
 40
0.0
  0
LTYPE
  5
15
330
5
100
AcDbSymbolTableRecord
100
AcDbLinetypeTableRecord
  2
ByLayer
 70
     0
  3

 72
    65
 73
     0
 40
0.0
  0
LTYPE
  5
16
330
5
100
AcDbSymbolTableRecord
100
AcDbLinetypeTableRecord
  2
Continuous
 70
     0
  3
Solid line
 72
    65
 73
     0
 40
0.0
  0
LTYPE
  5
6E
330
5
100
AcDbSymbolTableRecord
100
AcDbLinetypeTableRecord
  2
HIDDEN
 70
     0
  3
Hidden __ __ __ __ __ __ __ __ __ __ __ __ __ __
 72
    65
 73
     2
 40
1.905
 49
1.27
 74
     0
 49
-0.635
 74
     0
  0
LTYPE
  5
6F
330
5
100
AcDbSymbolTableRecord
100
AcDbLinetypeTableRecord
  2
PHANTOM
 70
     0
  3
Phantom ______  __  __  ______  __  __  ______
 72
    65
 73
     6
 40
12.7
 49
6.349999999999999
 74
     0
 49
-1.27
 74
     0
 49
1.27
 74
     0
 49
-1.27
 74
     0
 49
1.27
 74
     0
 49
-1.27
 74
     0
  0
LTYPE
  5
70
330
5
100
AcDbSymbolTableRecord
100
AcDbLinetypeTableRecord
  2
CENTER
 70
     0
  3
Center ____ _ ____ _ ____ _ ____ _ ____ _ ____
 72
    65
 73
     4
 40
10.16
 49
6.349999999999999
 74
     0
 49
-1.27
 74
     0
 49
1.27
 74
     0
 49
-1.27
 74
     0
  0
LTYPE
  5
71
330
5
100
AcDbSymbolTableRecord
100
AcDbLinetypeTableRecord
  2
CENTERX2
 70
     0
  3
Center (2x) ________  __  ________  __  _____
 72
    65
 73
     4
 40
20.32
 49
12.7
 74
     0
 49
-2.54
 74
     0
 49
2.54
 74
     0
 49
-2.54
 74
     0
  0
LTYPE
  5
72
330
5
100
AcDbSymbolTableRecord
100
AcDbLinetypeTableRecord
  2
DOT2
 70
     0
  3
Dot (.5x) ........................................
 72
    65
 73
     2
 40
0.635
 49
0.0
 74
     0
 49
-0.635
 74
     0
  0
ENDTAB
  0
TABLE
  2
LAYER
  5
2
330
0
100
AcDbSymbolTable
 70
     1
  0
LAYER
  5
10
102
{ACAD_XDICTIONARY
360
226
102
}
330
2
100
AcDbSymbolTableRecord
100
AcDbLayerTableRecord
  2
0
 70
     0
 62
     7
  6
Continuous
370
    -3
390
F
347
BC
348
0
  0
ENDTAB
  0
TABLE
  2
STYLE
  5
3
330
0
100
AcDbSymbolTable
 70
     2
  0
STYLE
  5
11
330
3
100
AcDbSymbolTableRecord
100
AcDbTextStyleTableRecord
  2
Standard
 70
     0
 40
0.0
 41
1.0
 50
0.0
 71
     0
 42
3.5
  3
txt
  4

  0
STYLE
  5
A6
330
3
100
AcDbSymbolTableRecord
100
AcDbTextStyleTableRecord
  2
SLDTEXTSTYLE0
 70
     0
 40
0.0
 41
0.7
 50
0.0
 71
     0
 42
3.5
  3
TXT
  4

  0
ENDTAB
  0
TABLE
  2
VIEW
  5
6
330
0
100
AcDbSymbolTable
 70
     0
  0
ENDTAB
  0
TABLE
  2
UCS
  5
7
330
0
100
AcDbSymbolTable
 70
     0
  0
ENDTAB
  0
TABLE
  2
APPID
  5
9
330
0
100
AcDbSymbolTable
 70
     2
  0
APPID
  5
12
330
9
100
AcDbSymbolTableRecord
100
AcDbRegAppTableRecord
  2
ACAD
 70
     0
  0
APPID
  5
232
330
9
100
AcDbSymbolTableRecord
100
AcDbRegAppTableRecord
  2
ACAD_NAV_VCDISPLAY
 70
     0
  0
ENDTAB
  0
TABLE
  2
DIMSTYLE
  5
A
330
0
100
AcDbSymbolTable
 70
     1
100
AcDbDimStyleTable
 71
     0
  0
DIMSTYLE
105
27
330
A
100
AcDbSymbolTableRecord
100
AcDbDimStyleTableRecord
  2
ISO-25
 70
     0
 41
2.5
 42
0.625
 43
3.75
 44
1.25
 73
     0
 74
     0
 77
     1
 78
     8
140
2.5
141
2.5
143
0.0393700787
147
0.625
171
     3
172
     1
271
     2
272
     2
274
     3
278
    44
283
     0
284
     8
340
11
  0
ENDTAB
  0
TABLE
  2
BLOCK_RECORD
  5
1
330
0
100
AcDbSymbolTable
 70
     1
  0
BLOCK_RECORD
  5
1F
330
1
100
AcDbSymbolTableRecord
100
AcDbBlockTableRecord
  2
*Model_Space
340
22
 70
     0
280
     1
281
     0
  0
BLOCK_RECORD
  5
1B
330
1
100
AcDbSymbolTableRecord
100
AcDbBlockTableRecord
  2
*Paper_Space
340
1E
 70
     0
280
     1
281
     0
  0
BLOCK_RECORD
  5
23
330
1
100
AcDbSymbolTableRecord
100
AcDbBlockTableRecord
  2
*Paper_Space0
340
26
 70
     0
280
     1
281
     0
  0
ENDTAB
  0
ENDSEC
  0
SECTION
  2
BLOCKS
  0
BLOCK
  5
20
330
1F
100
AcDbEntity
  8
0
100
AcDbBlockBegin
  2
*Model_Space
 70
     0
 10
0.0
 20
0.0
 30
0.0
  3
*Model_Space
  1

  0
ENDBLK
  5
21
330
1F
100
AcDbEntity
  8
0
100
AcDbBlockEnd
  0
BLOCK
  5
1C
330
1B
100
AcDbEntity
 67
     1
  8
0
100
AcDbBlockBegin
  2
*Paper_Space
 70
     0
 10
0.0
 20
0.0
 30
0.0
  3
*Paper_Space
  1

  0
ENDBLK
  5
1D
330
1B
100
AcDbEntity
 67
     1
  8
0
100
AcDbBlockEnd
  0
BLOCK
  5
24
330
23
100
AcDbEntity
 67
     1
  8
0
100
AcDbBlockBegin
  2
*Paper_Space0
 70
     0
 10
0.0
 20
0.0
 30
0.0
  3
*Paper_Space0
  1

  0
ENDBLK
  5
25
330
23
100
AcDbEntity
 67
     1
  8
0
100
AcDbBlockEnd
  0
ENDSEC
  0
SECTION
  2
ENTITIES
  0
CIRCLE
  5
73
102
{ACAD_REACTORS
330
189
102
}
330
1F
100
AcDbEntity
  8
0
  6
Continuous
 62
     7
370
    25
100
AcDbCircle
 10
0.0
 20
0.0
 30
0.0
 40
1.5
  0
ARC
  5
74
102
{ACAD_REACTORS
330
189
102
}
330
1F
100
AcDbEntity
  8
0
  6
Continuous
 62
     7
370
    25
100
AcDbCircle
 10
0.0
 20
0.0
 30
0.0
 40
9.246031173034287
100
AcDbArc
 50
28.5379010087
 51
44.1474423239
  0
ARC
  5
75
102
{ACAD_REACTORS
330
189
102
}
330
1F
100
AcDbEntity
  8
0
  6
Continuous
 62
     7
370
    25
100
AcDbCircle
 10
7.683399590299999
 20
4.1783288543
 30
0.0
 40
0.5000000000000014
100
AcDbArc
 50
302.0840857791
 51
28.5379010087
  0
ARC
  5
76
102
{ACAD_REACTORS
330
189
102
}
330
1F
100
AcDbEntity
  8
0
  6
Continuous
 62
     7
370
    25
100
AcDbCircle
 10
0.5464639427
 20
15.5626021917
 30
0.0
 40
13.93642548665454
100
AcDbArc
 50
276.2939714509
 51
302.0840857791
  0
ARC
  5
77
102
{ACAD_REACTORS
330
189
102
}
330
1F
100
AcDbEntity
  8
0
  6
Continuous
 62
     7
370
    25
100
AcDbCircle
 10
1.964680748399999
 20
2.7041510616
 30
0.0
 40
1.000000000000001
100
AcDbArc
 50
191.7060285491
 51
276.2939714509
  0
ARC
  5
78
102
{ACAD_REACTORS
330
189
102
}
330
1F
100
AcDbEntity
  8
0
  6
Continuous
 62
     7
370
    25
100
AcDbCircle
 10
14.6320475798
 20
5.328826647599999
 30
0.0
 40
13.93642548665454
100
AcDbArc
 50
165.9159142209
 51
191.7060285491
  0
ARC
  5
79
102
{ACAD_REACTORS
330
189
102
}
330
1F
100
AcDbEntity
  8
0
  6
Continuous
 62
     7
370
    25
100
AcDbCircle
 10
1.5995258361
 20
8.598521871799999
 30
0.0
 40
0.5
100
AcDbArc
 50
79.4620989913
 51
165.9159142209
  0
ARC
  5
7A
102
{ACAD_REACTORS
330
189
102
}
330
1F
100
AcDbEntity
  8
0
  6
Continuous
 62
     7
370
    25
100
AcDbCircle
 10
0.0
 20
0.0
 30
0.0
 40
9.246031173034287
100
AcDbArc
 50
63.85255767609999
 51
79.4620989913
  0
ARC
  5
7B
102
{ACAD_REACTORS
330
189
102
}
330
1F
100
AcDbEntity
  8
0
  6
Continuous
 62
     7
370
    25
100
AcDbCircle
 10
4.2406956057
 20
8.6382249194
 30
0.0
 40
0.3769844134828579
100
AcDbArc
 50
243.8525576761
 51
63.85255767609999
  0
ARC
  5
7C
102
{ACAD_REACTORS
330
189
102
}
330
1F
100
AcDbEntity
  8
0
  6
Continuous
 62
     7
370
    25
100
AcDbCircle
 10
0.0
 20
0.0
 30
0.0
 40
10.0
100
AcDbArc
 50
63.85255767609999
 51
116.1474423239
  0
ARC
  5
7D
102
{ACAD_REACTORS
330
189
102
}
330
1F
100
AcDbEntity
  8
0
  6
Continuous
 62
     7
370
    25
100
AcDbCircle
 10
-4.2406956057
 20
8.6382249194
 30
0.0
 40
0.3769844134828583
100
AcDbArc
 50
116.1474423239
 51
296.1474423239
  0
ARC
  5
7E
102
{ACAD_REACTORS
330
189
102
}
330
1F
100
AcDbEntity
  8
0
  6
Continuous
 62
     7
370
    25
100
AcDbCircle
 10
0.0
 20
0.0
 30
0.0
 40
9.246031173034287
100
AcDbArc
 50
100.5379010087
 51
116.1474423239
  0
ARC
  5
7F
102
{ACAD_REACTORS
330
189
102
}
330
1F
100
AcDbEntity
  8
0
  6
Continuous
 62
     7
370
    25
100
AcDbCircle
 10
-1.5995258361
 20
8.598521871799999
 30
0.0
 40
0.5000000000000004
100
AcDbArc
 50
14.0840857791
 51
100.5379010087
  0
ARC
  5
80
102
{ACAD_REACTORS
330
189
102
}
330
1F
100
AcDbEntity
  8
0
  6
Continuous
 62
     7
370
    25
100
AcDbCircle
 10
-14.6320475798
 20
5.328826647599999
 30
0.0
 40
13.93642548665454
100
AcDbArc
 50
346.3829499841001
 51
14.0840857791
  0
ARC
  5
81
102
{ACAD_REACTORS
330
189
102
}
330
1F
100
AcDbEntity
  8
0
  6
Continuous
 62
     7
370
    25
100
AcDbCircle
 10
-1.5733067893
 20
2.1654710202
 30
0.0
 40
0.5000000000000038
100
AcDbArc
 50
265.6170500159
 51
346.3829499841001
  0
ARC
  5
82
102
{ACAD_REACTORS
330
189
102
}
330
1F
100
AcDbEntity
  8
0
  6
Continuous
 62
     7
370
    25
100
AcDbCircle
 10
-0.5464639427
 20
15.5626021917
 30
0.0
 40
13.93642548665454
100
AcDbArc
 50
237.9159142209
 51
265.6170500159
  0
ARC
  5
83
102
{ACAD_REACTORS
330
189
102
}
330
1F
100
AcDbEntity
  8
0
  6
Continuous
 62
     7
370
    25
100
AcDbCircle
 10
-7.683399590299999
 20
4.1783288543
 30
0.0
 40
0.5000000000000018
100
AcDbArc
 50
151.4620989913
 51
237.9159142209
  0
ARC
  5
84
102
{ACAD_REACTORS
330
189
102
}
330
1F
100
AcDbEntity
  8
0
  6
Continuous
 62
     7
370
    25
100
AcDbCircle
 10
0.0
 20
0.0
 30
0.0
 40
9.246031173034287
100
AcDbArc
 50
135.8525576761
 51
151.4620989913
  0
ARC
  5
85
102
{ACAD_REACTORS
330
189
102
}
330
1F
100
AcDbEntity
  8
0
  6
Continuous
 62
     7
370
    25
100
AcDbCircle
 10
-6.9049930887
 20
6.7024994907
 30
0.0
 40
0.3769844134828577
100
AcDbArc
 50
315.8525576761
 51
135.8525576761
  0
ARC
  5
86
102
{ACAD_REACTORS
330
189
102
}
330
1F
100
AcDbEntity
  8
0
  6
Continuous
 62
     7
370
    25
100
AcDbCircle
 10
0.0
 20
0.0
 30
0.0
 40
10.0
100
AcDbArc
 50
135.8525576761
 51
188.1474423239
  0
ARC
  5
87
102
{ACAD_REACTORS
330
189
102
}
330
1F
100
AcDbEntity
  8
0
  6
Continuous
 62
     7
370
    25
100
AcDbCircle
 10
-9.525887108999999
 20
-1.3637828881
 30
0.0
 40
0.3769844134828582
100
AcDbArc
 50
188.1474423239
 51
8.1474423239
  0
ARC
  5
88
102
{ACAD_REACTORS
330
189
102
}
330
1F
100
AcDbEntity
  8
0
  6
Continuous
 62
     7
370
    25
100
AcDbCircle
 10
0.0
 20
0.0
 30
0.0
 40
9.246031173034287
100
AcDbArc
 50
172.5379010087
 51
188.1474423239
  0
ARC
  5
89
102
{ACAD_REACTORS
330
189
102
}
330
1F
100
AcDbEntity
  8
0
  6
Continuous
 62
     7
370
    25
100
AcDbCircle
 10
-8.671960923
 20
1.1358499154
 30
0.0
 40
0.5000000000000001
100
AcDbArc
 50
86.08408577909999
 51
172.5379010087
  0
ARC
  5
8A
102
{ACAD_REACTORS
330
189
102
}
330
1F
100
AcDbEntity
  8
0
  6
Continuous
 62
     7
370
    25
100
AcDbCircle
 10
-9.589566672
 20
-12.2692062033
 30
0.0
 40
13.93642548665454
100
AcDbArc
 50
60.2939714509
 51
86.08408577909999
  0
ARC
  5
8B
102
{ACAD_REACTORS
330
189
102
}
330
1F
100
AcDbEntity
  8
0
  6
Continuous
 62
     7
370
    25
100
AcDbCircle
 10
-3.178920227999999
 20
-1.0328937948
 30
0.0
 40
0.9999999999999987
100
AcDbArc
 50
335.7060285491
 51
60.2939714509
  0
ARC
  5
8C
102
{ACAD_REACTORS
330
189
102
}
330
1F
100
AcDbEntity
  8
0
  6
Continuous
 62
     7
370
    25
100
AcDbCircle
 10
-14.96978087
 20
4.289390460299999
 30
0.0
 40
13.93642548665454
100
AcDbArc
 50
309.9159142209
 51
335.7060285491
  0
ARC
  5
8D
102
{ACAD_REACTORS
330
189
102
}
330
1F
100
AcDbEntity
  8
0
  6
Continuous
 62
     7
370
    25
100
AcDbCircle
 10
-6.3481279321
 20
-6.0161726236
 30
0.0
 40
0.5000000000000019
100
AcDbArc
 50
223.4620989913
 51
309.9159142209
  0
ARC
  5
8E
102
{ACAD_REACTORS
330
189
102
}
330
1F
100
AcDbEntity
  8
0
  6
Continuous
 62
     7
370
    25
100
AcDbCircle
 10
0.0
 20
0.0
 30
0.0
 40
9.246031173034287
100
AcDbArc
 50
207.8525576761
 51
223.4620989913
  0
ARC
  5
8F
102
{ACAD_REACTORS
330
189
102
}
330
1F
100
AcDbEntity
  8
0
  6
Continuous
 62
     7
370
    25
100
AcDbCircle
 10
-8.508216026599999
 20
-4.495852424599999
 30
0.0
 40
0.3769844134828575
100
AcDbArc
 50
27.8525576761
 51
207.8525576761
  0
ARC
  5
90
102
{ACAD_REACTORS
330
189
102
}
330
1F
100
AcDbEntity
  8
0
  6
Continuous
 62
     7
370
    25
100
AcDbCircle
 10
0.0
 20
0.0
 30
0.0
 40
10.0
100
AcDbArc
 50
207.8525576761
 51
260.1474423239
  0
ARC
  5
91
102
{ACAD_REACTORS
330
189
102
}
330
1F
100
AcDbEntity
  8
0
  6
Continuous
 62
     7
370
    25
100
AcDbCircle
 10
-1.646626400699999
 20
-9.481089097499999
 30
0.0
 40
0.3769844134828584
100
AcDbArc
 50
260.1474423239
 51
80.1474423239
  0
ARC
  5
92
102
{ACAD_REACTORS
330
189
102
}
330
1F
100
AcDbEntity
  8
0
  6
Continuous
 62
     7
370
    25
100
AcDbCircle
 10
0.0
 20
0.0
 30
0.0
 40
9.246031173034287
100
AcDbArc
 50
244.5379010087
 51
260.1474423239
  0
ARC
  5
93
102
{ACAD_REACTORS
330
189
102
}
330
1F
100
AcDbEntity
  8
0
  6
Continuous
 62
     7
370
    25
100
AcDbCircle
 10
-3.760040763399999
 20
-7.896528017899999
 30
0.0
 40
0.5000000000000022
100
AcDbArc
 50
158.0840857791
 51
244.5379010087
  0
ARC
  5
94
102
{ACAD_REACTORS
330
189
102
}
330
1F
100
AcDbEntity
  8
0
  6
Continuous
 62
     7
370
    25
100
AcDbCircle
 10
8.7053694391
 20
-12.9116130962
 30
0.0
 40
13.93642548665454
100
AcDbArc
 50
132.2939714509
 51
158.0840857791
  0
ARC
  5
95
102
{ACAD_REACTORS
330
189
102
}
330
1F
100
AcDbEntity
  8
0
  6
Continuous
 62
     7
370
    25
100
AcDbCircle
 10
0.0
 20
-3.3425145336
 30
0.0
 40
1.000000000000001
100
AcDbArc
 50
47.70602854909999
 51
132.2939714509
  0
ARC
  5
96
102
{ACAD_REACTORS
330
189
102
}
330
1F
100
AcDbEntity
  8
0
  6
Continuous
 62
     7
370
    25
100
AcDbCircle
 10
-8.7053694391
 20
-12.9116130962
 30
0.0
 40
13.93642548665454
100
AcDbArc
 50
21.91591422090001
 51
47.70602854909999
  0
ARC
  5
97
102
{ACAD_REACTORS
330
189
102
}
330
1F
100
AcDbEntity
  8
0
  6
Continuous
 62
     7
370
    25
100
AcDbCircle
 10
3.760040763399999
 20
-7.896528017899999
 30
0.0
 40
0.5000000000000029
100
AcDbArc
 50
295.4620989913
 51
21.91591422090001
  0
ARC
  5
98
102
{ACAD_REACTORS
330
189
102
}
330
1F
100
AcDbEntity
  8
0
  6
Continuous
 62
     7
370
    25
100
AcDbCircle
 10
0.0
 20
0.0
 30
0.0
 40
9.246031173034287
100
AcDbArc
 50
279.8525576761
 51
295.4620989913
  0
ARC
  5
99
102
{ACAD_REACTORS
330
189
102
}
330
1F
100
AcDbEntity
  8
0
  6
Continuous
 62
     7
370
    25
100
AcDbCircle
 10
1.646626400699999
 20
-9.481089097499999
 30
0.0
 40
0.3769844134828569
100
AcDbArc
 50
99.8525576761
 51
279.8525576761
  0
ARC
  5
9A
102
{ACAD_REACTORS
330
189
102
}
330
1F
100
AcDbEntity
  8
0
  6
Continuous
 62
     7
370
    25
100
AcDbCircle
 10
0.0
 20
0.0
 30
0.0
 40
10.0
100
AcDbArc
 50
279.8525576761
 51
332.1474423239
  0
ARC
  5
9B
102
{ACAD_REACTORS
330
189
102
}
330
1F
100
AcDbEntity
  8
0
  6
Continuous
 62
     7
370
    25
100
AcDbCircle
 10
8.508216026599999
 20
-4.495852424599999
 30
0.0
 40
0.3769844134828573
100
AcDbArc
 50
332.1474423239
 51
152.1474423239
  0
ARC
  5
9C
102
{ACAD_REACTORS
330
189
102
}
330
1F
100
AcDbEntity
  8
0
  6
Continuous
 62
     7
370
    25
100
AcDbCircle
 10
0.0
 20
0.0
 30
0.0
 40
9.246031173034287
100
AcDbArc
 50
316.5379010087
 51
332.1474423239
  0
ARC
  5
9D
102
{ACAD_REACTORS
330
189
102
}
330
1F
100
AcDbEntity
  8
0
  6
Continuous
 62
     7
370
    25
100
AcDbCircle
 10
6.3481279321
 20
-6.0161726236
 30
0.0
 40
0.5000000000000014
100
AcDbArc
 50
230.0840857791
 51
316.5379010087
  0
ARC
  5
9E
102
{ACAD_REACTORS
330
189
102
}
330
1F
100
AcDbEntity
  8
0
  6
Continuous
 62
     7
370
    25
100
AcDbCircle
 10
14.96978087
 20
4.289390460299999
 30
0.0
 40
13.93642548665454
100
AcDbArc
 50
204.2939714509
 51
230.0840857791
  0
ARC
  5
9F
102
{ACAD_REACTORS
330
189
102
}
330
1F
100
AcDbEntity
  8
0
  6
Continuous
 62
     7
370
    25
100
AcDbCircle
 10
3.178920227999999
 20
-1.0328937948
 30
0.0
 40
1.000000000000001
100
AcDbArc
 50
119.7060285491
 51
204.2939714509
  0
ARC
  5
A0
102
{ACAD_REACTORS
330
189
102
}
330
1F
100
AcDbEntity
  8
0
  6
Continuous
 62
     7
370
    25
100
AcDbCircle
 10
9.589566672
 20
-12.2692062033
 30
0.0
 40
13.93642548665454
100
AcDbArc
 50
93.9159142209
 51
119.7060285491
  0
ARC
  5
A1
102
{ACAD_REACTORS
330
189
102
}
330
1F
100
AcDbEntity
  8
0
  6
Continuous
 62
     7
370
    25
100
AcDbCircle
 10
8.671960923
 20
1.1358499154
 30
0.0
 40
0.5000000000000008
100
AcDbArc
 50
7.462098991299999
 51
93.9159142209
  0
ARC
  5
A2
102
{ACAD_REACTORS
330
189
102
}
330
1F
100
AcDbEntity
  8
0
  6
Continuous
 62
     7
370
    25
100
AcDbCircle
 10
0.0
 20
0.0
 30
0.0
 40
9.246031173034287
100
AcDbArc
 50
351.8525576761
 51
7.462098991299999
  0
ARC
  5
A3
102
{ACAD_REACTORS
330
189
102
}
330
1F
100
AcDbEntity
  8
0
  6
Continuous
 62
     7
370
    25
100
AcDbCircle
 10
9.525887108999999
 20
-1.3637828881
 30
0.0
 40
0.3769844134828575
100
AcDbArc
 50
171.8525576761
 51
351.8525576761
  0
ARC
  5
A4
102
{ACAD_REACTORS
330
189
102
}
330
1F
100
AcDbEntity
  8
0
  6
Continuous
 62
     7
370
    25
100
AcDbCircle
 10
0.0
 20
0.0
 30
0.0
 40
10.0
100
AcDbArc
 50
351.8525576761
 51
44.1474423239
  0
ARC
  5
A5
102
{ACAD_REACTORS
330
189
102
}
330
1F
100
AcDbEntity
  8
0
  6
Continuous
 62
     7
370
    25
100
AcDbCircle
 10
6.9049930887
 20
6.7024994907
 30
0.0
 40
0.3769844134828578
100
AcDbArc
 50
44.1474423239
 51
224.1474423239
  0
CIRCLE
  5
18A
102
{ACAD_REACTORS
330
1BD
102
}
330
1F
100
AcDbEntity
  8
0
  6
Continuous
 62
     7
370
    25
100
AcDbCircle
 10
23.04217293621247
 20
0.0
 30
0.0
 40
1.5
  0
ARC
  5
18B
102
{ACAD_REACTORS
330
1BD
102
}
330
1F
100
AcDbEntity
  8
0
  6
Continuous
 62
     7
370
    25
100
AcDbCircle
 10
23.04217293621247
 20
0.0
 30
0.0
 40
9.246031173034287
100
AcDbArc
 50
28.53790100870004
 51
44.14744232390004
  0
ARC
  5
18C
102
{ACAD_REACTORS
330
1BD
102
}
330
1F
100
AcDbEntity
  8
0
  6
Continuous
 62
     7
370
    25
100
AcDbCircle
 10
30.72557252651247
 20
4.1783288543
 30
0.0
 40
0.5000000000000014
100
AcDbArc
 50
302.0840857790999
 51
28.53790100870004
  0
ARC
  5
18D
102
{ACAD_REACTORS
330
1BD
102
}
330
1F
100
AcDbEntity
  8
0
  6
Continuous
 62
     7
370
    25
100
AcDbCircle
 10
23.58863687891247
 20
15.5626021917
 30
0.0
 40
13.93642548665454
100
AcDbArc
 50
276.2939714509
 51
302.0840857790999
  0
ARC
  5
18E
102
{ACAD_REACTORS
330
1BD
102
}
330
1F
100
AcDbEntity
  8
0
  6
Continuous
 62
     7
370
    25
100
AcDbCircle
 10
25.00685368461247
 20
2.7041510616
 30
0.0
 40
1.000000000000001
100
AcDbArc
 50
191.7060285491
 51
276.2939714509
  0
ARC
  5
18F
102
{ACAD_REACTORS
330
1BD
102
}
330
1F
100
AcDbEntity
  8
0
  6
Continuous
 62
     7
370
    25
100
AcDbCircle
 10
37.67422051601247
 20
5.328826647599999
 30
0.0
 40
13.93642548665454
100
AcDbArc
 50
165.9159142209
 51
191.7060285491
  0
ARC
  5
190
102
{ACAD_REACTORS
330
1BD
102
}
330
1F
100
AcDbEntity
  8
0
  6
Continuous
 62
     7
370
    25
100
AcDbCircle
 10
24.64169877231247
 20
8.598521871799999
 30
0.0
 40
0.5
100
AcDbArc
 50
79.46209899130003
 51
165.9159142209
  0
ARC
  5
191
102
{ACAD_REACTORS
330
1BD
102
}
330
1F
100
AcDbEntity
  8
0
  6
Continuous
 62
     7
370
    25
100
AcDbCircle
 10
23.04217293621247
 20
0.0
 30
0.0
 40
9.246031173034287
100
AcDbArc
 50
63.85255767610003
 51
79.46209899130003
  0
ARC
  5
192
102
{ACAD_REACTORS
330
1BD
102
}
330
1F
100
AcDbEntity
  8
0
  6
Continuous
 62
     7
370
    25
100
AcDbCircle
 10
27.28286854191247
 20
8.6382249194
 30
0.0
 40
0.3769844134828579
100
AcDbArc
 50
243.8525576761
 51
63.85255767610003
  0
ARC
  5
193
102
{ACAD_REACTORS
330
1BD
102
}
330
1F
100
AcDbEntity
  8
0
  6
Continuous
 62
     7
370
    25
100
AcDbCircle
 10
23.04217293621247
 20
0.0
 30
0.0
 40
10.0
100
AcDbArc
 50
63.85255767610003
 51
116.1474423238999
  0
ARC
  5
194
102
{ACAD_REACTORS
330
1BD
102
}
330
1F
100
AcDbEntity
  8
0
  6
Continuous
 62
     7
370
    25
100
AcDbCircle
 10
18.80147733051246
 20
8.6382249194
 30
0.0
 40
0.3769844134828583
100
AcDbArc
 50
116.1474423238999
 51
296.1474423239
  0
ARC
  5
195
102
{ACAD_REACTORS
330
1BD
102
}
330
1F
100
AcDbEntity
  8
0
  6
Continuous
 62
     7
370
    25
100
AcDbCircle
 10
23.04217293621247
 20
0.0
 30
0.0
 40
9.246031173034287
100
AcDbArc
 50
100.5379010086999
 51
116.1474423238999
  0
ARC
  5
196
102
{ACAD_REACTORS
330
1BD
102
}
330
1F
100
AcDbEntity
  8
0
  6
Continuous
 62
     7
370
    25
100
AcDbCircle
 10
21.44264710011247
 20
8.598521871799999
 30
0.0
 40
0.5000000000000004
100
AcDbArc
 50
14.08408577909999
 51
100.5379010086999
  0
ARC
  5
197
102
{ACAD_REACTORS
330
1BD
102
}
330
1F
100
AcDbEntity
  8
0
  6
Continuous
 62
     7
370
    25
100
AcDbCircle
 10
8.410125356412466
 20
5.328826647599999
 30
0.0
 40
13.93642548665454
100
AcDbArc
 50
346.3829499841001
 51
14.08408577909999
  0
ARC
  5
198
102
{ACAD_REACTORS
330
1BD
102
}
330
1F
100
AcDbEntity
  8
0
  6
Continuous
 62
     7
370
    25
100
AcDbCircle
 10
21.46886614691247
 20
2.1654710202
 30
0.0
 40
0.5000000000000038
100
AcDbArc
 50
265.6170500159001
 51
346.3829499841001
  0
ARC
  5
199
102
{ACAD_REACTORS
330
1BD
102
}
330
1F
100
AcDbEntity
  8
0
  6
Continuous
 62
     7
370
    25
100
AcDbCircle
 10
22.49570899351247
 20
15.5626021917
 30
0.0
 40
13.93642548665454
100
AcDbArc
 50
237.9159142208999
 51
265.6170500159001
  0
ARC
  5
19A
102
{ACAD_REACTORS
330
1BD
102
}
330
1F
100
AcDbEntity
  8
0
  6
Continuous
 62
     7
370
    25
100
AcDbCircle
 10
15.35877334591247
 20
4.1783288543
 30
0.0
 40
0.5000000000000018
100
AcDbArc
 50
151.4620989912999
 51
237.9159142208999
  0
ARC
  5
19B
102
{ACAD_REACTORS
330
1BD
102
}
330
1F
100
AcDbEntity
  8
0
  6
Continuous
 62
     7
370
    25
100
AcDbCircle
 10
23.04217293621247
 20
0.0
 30
0.0
 40
9.246031173034287
100
AcDbArc
 50
135.8525576761
 51
151.4620989912999
  0
ARC
  5
19C
102
{ACAD_REACTORS
330
1BD
102
}
330
1F
100
AcDbEntity
  8
0
  6
Continuous
 62
     7
370
    25
100
AcDbCircle
 10
16.13717984751247
 20
6.7024994907
 30
0.0
 40
0.3769844134828577
100
AcDbArc
 50
315.8525576760999
 51
135.8525576761
  0
ARC
  5
19D
102
{ACAD_REACTORS
330
1BD
102
}
330
1F
100
AcDbEntity
  8
0
  6
Continuous
 62
     7
370
    25
100
AcDbCircle
 10
23.04217293621247
 20
0.0
 30
0.0
 40
10.0
100
AcDbArc
 50
135.8525576761
 51
188.1474423239
  0
ARC
  5
19E
102
{ACAD_REACTORS
330
1BD
102
}
330
1F
100
AcDbEntity
  8
0
  6
Continuous
 62
     7
370
    25
100
AcDbCircle
 10
13.51628582721247
 20
-1.3637828881
 30
0.0
 40
0.3769844134828582
100
AcDbArc
 50
188.1474423239
 51
8.147442323900003
  0
ARC
  5
19F
102
{ACAD_REACTORS
330
1BD
102
}
330
1F
100
AcDbEntity
  8
0
  6
Continuous
 62
     7
370
    25
100
AcDbCircle
 10
23.04217293621247
 20
0.0
 30
0.0
 40
9.246031173034287
100
AcDbArc
 50
172.5379010087
 51
188.1474423239
  0
ARC
  5
1A0
102
{ACAD_REACTORS
330
1BD
102
}
330
1F
100
AcDbEntity
  8
0
  6
Continuous
 62
     7
370
    25
100
AcDbCircle
 10
14.37021201321246
 20
1.1358499154
 30
0.0
 40
0.5000000000000001
100
AcDbArc
 50
86.08408577910003
 51
172.5379010087
  0
ARC
  5
1A1
102
{ACAD_REACTORS
330
1BD
102
}
330
1F
100
AcDbEntity
  8
0
  6
Continuous
 62
     7
370
    25
100
AcDbCircle
 10
13.45260626421246
 20
-12.2692062033
 30
0.0
 40
13.93642548665454
100
AcDbArc
 50
60.29397145090004
 51
86.08408577910003
  0
ARC
  5
1A2
102
{ACAD_REACTORS
330
1BD
102
}
330
1F
100
AcDbEntity
  8
0
  6
Continuous
 62
     7
370
    25
100
AcDbCircle
 10
19.86325270821247
 20
-1.0328937948
 30
0.0
 40
0.9999999999999987
100
AcDbArc
 50
335.7060285491
 51
60.29397145090004
  0
ARC
  5
1A3
102
{ACAD_REACTORS
330
1BD
102
}
330
1F
100
AcDbEntity
  8
0
  6
Continuous
 62
     7
370
    25
100
AcDbCircle
 10
8.072392066212467
 20
4.289390460299999
 30
0.0
 40
13.93642548665454
100
AcDbArc
 50
309.9159142209
 51
335.7060285491
  0
ARC
  5
1A4
102
{ACAD_REACTORS
330
1BD
102
}
330
1F
100
AcDbEntity
  8
0
  6
Continuous
 62
     7
370
    25
100
AcDbCircle
 10
16.69404500411246
 20
-6.0161726236
 30
0.0
 40
0.5000000000000019
100
AcDbArc
 50
223.4620989913
 51
309.9159142209
  0
ARC
  5
1A5
102
{ACAD_REACTORS
330
1BD
102
}
330
1F
100
AcDbEntity
  8
0
  6
Continuous
 62
     7
370
    25
100
AcDbCircle
 10
23.04217293621247
 20
0.0
 30
0.0
 40
9.246031173034287
100
AcDbArc
 50
207.8525576761
 51
223.4620989913
  0
ARC
  5
1A6
102
{ACAD_REACTORS
330
1BD
102
}
330
1F
100
AcDbEntity
  8
0
  6
Continuous
 62
     7
370
    25
100
AcDbCircle
 10
14.53395690961247
 20
-4.495852424599999
 30
0.0
 40
0.3769844134828575
100
AcDbArc
 50
27.85255767610002
 51
207.8525576761
  0
ARC
  5
1A7
102
{ACAD_REACTORS
330
1BD
102
}
330
1F
100
AcDbEntity
  8
0
  6
Continuous
 62
     7
370
    25
100
AcDbCircle
 10
23.04217293621247
 20
0.0
 30
0.0
 40
10.0
100
AcDbArc
 50
207.8525576761
 51
260.1474423239
  0
ARC
  5
1A8
102
{ACAD_REACTORS
330
1BD
102
}
330
1F
100
AcDbEntity
  8
0
  6
Continuous
 62
     7
370
    25
100
AcDbCircle
 10
21.39554653551247
 20
-9.481089097499999
 30
0.0
 40
0.3769844134828584
100
AcDbArc
 50
260.1474423239
 51
80.14744232390004
  0
ARC
  5
1A9
102
{ACAD_REACTORS
330
1BD
102
}
330
1F
100
AcDbEntity
  8
0
  6
Continuous
 62
     7
370
    25
100
AcDbCircle
 10
23.04217293621247
 20
0.0
 30
0.0
 40
9.246031173034287
100
AcDbArc
 50
244.5379010087
 51
260.1474423239
  0
ARC
  5
1AA
102
{ACAD_REACTORS
330
1BD
102
}
330
1F
100
AcDbEntity
  8
0
  6
Continuous
 62
     7
370
    25
100
AcDbCircle
 10
19.28213217281246
 20
-7.896528017899999
 30
0.0
 40
0.5000000000000022
100
AcDbArc
 50
158.0840857791
 51
244.5379010087
  0
ARC
  5
1AB
102
{ACAD_REACTORS
330
1BD
102
}
330
1F
100
AcDbEntity
  8
0
  6
Continuous
 62
     7
370
    25
100
AcDbCircle
 10
31.74754237531247
 20
-12.9116130962
 30
0.0
 40
13.93642548665454
100
AcDbArc
 50
132.2939714509
 51
158.0840857791
  0
ARC
  5
1AC
102
{ACAD_REACTORS
330
1BD
102
}
330
1F
100
AcDbEntity
  8
0
  6
Continuous
 62
     7
370
    25
100
AcDbCircle
 10
23.04217293621247
 20
-3.3425145336
 30
0.0
 40
1.000000000000001
100
AcDbArc
 50
47.70602854909995
 51
132.2939714509
  0
ARC
  5
1AD
102
{ACAD_REACTORS
330
1BD
102
}
330
1F
100
AcDbEntity
  8
0
  6
Continuous
 62
     7
370
    25
100
AcDbCircle
 10
14.33680349711246
 20
-12.9116130962
 30
0.0
 40
13.93642548665454
100
AcDbArc
 50
21.91591422090001
 51
47.70602854909995
  0
ARC
  5
1AE
102
{ACAD_REACTORS
330
1BD
102
}
330
1F
100
AcDbEntity
  8
0
  6
Continuous
 62
     7
370
    25
100
AcDbCircle
 10
26.80221369961247
 20
-7.896528017899999
 30
0.0
 40
0.5000000000000029
100
AcDbArc
 50
295.4620989913001
 51
21.91591422090001
  0
ARC
  5
1AF
102
{ACAD_REACTORS
330
1BD
102
}
330
1F
100
AcDbEntity
  8
0
  6
Continuous
 62
     7
370
    25
100
AcDbCircle
 10
23.04217293621247
 20
0.0
 30
0.0
 40
9.246031173034287
100
AcDbArc
 50
279.8525576761
 51
295.4620989913001
  0
ARC
  5
1B0
102
{ACAD_REACTORS
330
1BD
102
}
330
1F
100
AcDbEntity
  8
0
  6
Continuous
 62
     7
370
    25
100
AcDbCircle
 10
24.68879933691247
 20
-9.481089097499999
 30
0.0
 40
0.3769844134828569
100
AcDbArc
 50
99.85255767609997
 51
279.8525576761
  0
ARC
  5
1B1
102
{ACAD_REACTORS
330
1BD
102
}
330
1F
100
AcDbEntity
  8
0
  6
Continuous
 62
     7
370
    25
100
AcDbCircle
 10
23.04217293621247
 20
0.0
 30
0.0
 40
10.0
100
AcDbArc
 50
279.8525576761
 51
332.1474423239
  0
ARC
  5
1B2
102
{ACAD_REACTORS
330
1BD
102
}
330
1F
100
AcDbEntity
  8
0
  6
Continuous
 62
     7
370
    25
100
AcDbCircle
 10
31.55038896281247
 20
-4.495852424599999
 30
0.0
 40
0.3769844134828573
100
AcDbArc
 50
332.1474423239
 51
152.1474423239
  0
ARC
  5
1B3
102
{ACAD_REACTORS
330
1BD
102
}
330
1F
100
AcDbEntity
  8
0
  6
Continuous
 62
     7
370
    25
100
AcDbCircle
 10
23.04217293621247
 20
0.0
 30
0.0
 40
9.246031173034287
100
AcDbArc
 50
316.5379010086999
 51
332.1474423239
  0
ARC
  5
1B4
102
{ACAD_REACTORS
330
1BD
102
}
330
1F
100
AcDbEntity
  8
0
  6
Continuous
 62
     7
370
    25
100
AcDbCircle
 10
29.39030086831247
 20
-6.0161726236
 30
0.0
 40
0.5000000000000014
100
AcDbArc
 50
230.0840857791
 51
316.5379010086999
  0
ARC
  5
1B5
102
{ACAD_REACTORS
330
1BD
102
}
330
1F
100
AcDbEntity
  8
0
  6
Continuous
 62
     7
370
    25
100
AcDbCircle
 10
38.01195380621247
 20
4.289390460299999
 30
0.0
 40
13.93642548665454
100
AcDbArc
 50
204.2939714509
 51
230.0840857791
  0
ARC
  5
1B6
102
{ACAD_REACTORS
330
1BD
102
}
330
1F
100
AcDbEntity
  8
0
  6
Continuous
 62
     7
370
    25
100
AcDbCircle
 10
26.22109316421247
 20
-1.0328937948
 30
0.0
 40
1.000000000000001
100
AcDbArc
 50
119.7060285490999
 51
204.2939714509
  0
ARC
  5
1B7
102
{ACAD_REACTORS
330
1BD
102
}
330
1F
100
AcDbEntity
  8
0
  6
Continuous
 62
     7
370
    25
100
AcDbCircle
 10
32.63173960821247
 20
-12.2692062033
 30
0.0
 40
13.93642548665454
100
AcDbArc
 50
93.9159142209
 51
119.7060285490999
  0
ARC
  5
1B8
102
{ACAD_REACTORS
330
1BD
102
}
330
1F
100
AcDbEntity
  8
0
  6
Continuous
 62
     7
370
    25
100
AcDbCircle
 10
31.71413385921247
 20
1.1358499154
 30
0.0
 40
0.5000000000000008
100
AcDbArc
 50
7.462098991299991
 51
93.9159142209
  0
ARC
  5
1B9
102
{ACAD_REACTORS
330
1BD
102
}
330
1F
100
AcDbEntity
  8
0
  6
Continuous
 62
     7
370
    25
100
AcDbCircle
 10
23.04217293621247
 20
0.0
 30
0.0
 40
9.246031173034287
100
AcDbArc
 50
351.8525576761
 51
7.462098991299991
  0
ARC
  5
1BA
102
{ACAD_REACTORS
330
1BD
102
}
330
1F
100
AcDbEntity
  8
0
  6
Continuous
 62
     7
370
    25
100
AcDbCircle
 10
32.56806004521247
 20
-1.3637828881
 30
0.0
 40
0.3769844134828575
100
AcDbArc
 50
171.8525576761
 51
351.8525576761
  0
ARC
  5
1BB
102
{ACAD_REACTORS
330
1BD
102
}
330
1F
100
AcDbEntity
  8
0
  6
Continuous
 62
     7
370
    25
100
AcDbCircle
 10
23.04217293621247
 20
0.0
 30
0.0
 40
10.0
100
AcDbArc
 50
351.8525576761
 51
44.14744232390004
  0
ARC
  5
1BC
102
{ACAD_REACTORS
330
1BD
102
}
330
1F
100
AcDbEntity
  8
0
  6
Continuous
 62
     7
370
    25
100
AcDbCircle
 10
29.94716602491246
 20
6.7024994907
 30
0.0
 40
0.3769844134828578
100
AcDbArc
 50
44.14744232390004
 51
224.1474423239
  0
CIRCLE
  5
1BE
102
{ACAD_REACTORS
330
1F1
102
}
330
1F
100
AcDbEntity
  8
0
  6
Continuous
 62
     7
370
    25
100
AcDbCircle
 10
11.09567387834018
 20
19.21827090150001
 30
0.0
 40
1.5
  0
ARC
  5
1BF
102
{ACAD_REACTORS
330
1F1
102
}
330
1F
100
AcDbEntity
  8
0
  6
Continuous
 62
     7
370
    25
100
AcDbCircle
 10
11.09567387834018
 20
19.21827090150001
 30
0.0
 40
9.246031173034287
100
AcDbArc
 50
28.53790100869991
 51
44.14744232389995
  0
ARC
  5
1C0
102
{ACAD_REACTORS
330
1F1
102
}
330
1F
100
AcDbEntity
  8
0
  6
Continuous
 62
     7
370
    25
100
AcDbCircle
 10
18.77907346864018
 20
23.39659975580001
 30
0.0
 40
0.5000000000000014
100
AcDbArc
 50
302.0840857791
 51
28.53790100869991
  0
ARC
  5
1C1
102
{ACAD_REACTORS
330
1F1
102
}
330
1F
100
AcDbEntity
  8
0
  6
Continuous
 62
     7
370
    25
100
AcDbCircle
 10
11.64213782104018
 20
34.78087309320001
 30
0.0
 40
13.93642548665454
100
AcDbArc
 50
276.2939714509
 51
302.0840857791
  0
ARC
  5
1C2
102
{ACAD_REACTORS
330
1F1
102
}
330
1F
100
AcDbEntity
  8
0
  6
Continuous
 62
     7
370
    25
100
AcDbCircle
 10
13.06035462674018
 20
21.92242196310001
 30
0.0
 40
1.000000000000001
100
AcDbArc
 50
191.7060285491
 51
276.2939714509
  0
ARC
  5
1C3
102
{ACAD_REACTORS
330
1F1
102
}
330
1F
100
AcDbEntity
  8
0
  6
Continuous
 62
     7
370
    25
100
AcDbCircle
 10
25.72772145814019
 20
24.54709754910001
 30
0.0
 40
13.93642548665454
100
AcDbArc
 50
165.9159142209
 51
191.7060285491
  0
ARC
  5
1C4
102
{ACAD_REACTORS
330
1F1
102
}
330
1F
100
AcDbEntity
  8
0
  6
Continuous
 62
     7
370
    25
100
AcDbCircle
 10
12.69519971444018
 20
27.81679277330001
 30
0.0
 40
0.5
100
AcDbArc
 50
79.46209899130002
 51
165.9159142209
  0
ARC
  5
1C5
102
{ACAD_REACTORS
330
1F1
102
}
330
1F
100
AcDbEntity
  8
0
  6
Continuous
 62
     7
370
    25
100
AcDbCircle
 10
11.09567387834018
 20
19.21827090150001
 30
0.0
 40
9.246031173034287
100
AcDbArc
 50
63.85255767610004
 51
79.46209899130002
  0
ARC
  5
1C6
102
{ACAD_REACTORS
330
1F1
102
}
330
1F
100
AcDbEntity
  8
0
  6
Continuous
 62
     7
370
    25
100
AcDbCircle
 10
15.33636948404018
 20
27.85649582090001
 30
0.0
 40
0.3769844134828579
100
AcDbArc
 50
243.8525576761
 51
63.85255767610004
  0
ARC
  5
1C7
102
{ACAD_REACTORS
330
1F1
102
}
330
1F
100
AcDbEntity
  8
0
  6
Continuous
 62
     7
370
    25
100
AcDbCircle
 10
11.09567387834018
 20
19.21827090150001
 30
0.0
 40
10.0
100
AcDbArc
 50
63.85255767610004
 51
116.1474423238999
  0
ARC
  5
1C8
102
{ACAD_REACTORS
330
1F1
102
}
330
1F
100
AcDbEntity
  8
0
  6
Continuous
 62
     7
370
    25
100
AcDbCircle
 10
6.854978272640184
 20
27.85649582090001
 30
0.0
 40
0.3769844134828583
100
AcDbArc
 50
116.1474423238999
 51
296.1474423239
  0
ARC
  5
1C9
102
{ACAD_REACTORS
330
1F1
102
}
330
1F
100
AcDbEntity
  8
0
  6
Continuous
 62
     7
370
    25
100
AcDbCircle
 10
11.09567387834018
 20
19.21827090150001
 30
0.0
 40
9.246031173034287
100
AcDbArc
 50
100.5379010086999
 51
116.1474423238999
  0
ARC
  5
1CA
102
{ACAD_REACTORS
330
1F1
102
}
330
1F
100
AcDbEntity
  8
0
  6
Continuous
 62
     7
370
    25
100
AcDbCircle
 10
9.496148042240184
 20
27.81679277330001
 30
0.0
 40
0.5000000000000004
100
AcDbArc
 50
14.08408577909998
 51
100.5379010086999
  0
ARC
  5
1CB
102
{ACAD_REACTORS
330
1F1
102
}
330
1F
100
AcDbEntity
  8
0
  6
Continuous
 62
     7
370
    25
100
AcDbCircle
 10
-3.536373701459815
 20
24.54709754910001
 30
0.0
 40
13.93642548665454
100
AcDbArc
 50
346.3829499841001
 51
14.08408577909998
  0
ARC
  5
1CC
102
{ACAD_REACTORS
330
1F1
102
}
330
1F
100
AcDbEntity
  8
0
  6
Continuous
 62
     7
370
    25
100
AcDbCircle
 10
9.522367089040184
 20
21.38374192170001
 30
0.0
 40
0.5000000000000038
100
AcDbArc
 50
265.6170500159001
 51
346.3829499841001
  0
ARC
  5
1CD
102
{ACAD_REACTORS
330
1F1
102
}
330
1F
100
AcDbEntity
  8
0
  6
Continuous
 62
     7
370
    25
100
AcDbCircle
 10
10.54920993564018
 20
34.78087309320001
 30
0.0
 40
13.93642548665454
100
AcDbArc
 50
237.9159142209
 51
265.6170500159001
  0
ARC
  5
1CE
102
{ACAD_REACTORS
330
1F1
102
}
330
1F
100
AcDbEntity
  8
0
  6
Continuous
 62
     7
370
    25
100
AcDbCircle
 10
3.412274288040184
 20
23.39659975580001
 30
0.0
 40
0.5000000000000018
100
AcDbArc
 50
151.4620989912999
 51
237.9159142209
  0
ARC
  5
1CF
102
{ACAD_REACTORS
330
1F1
102
}
330
1F
100
AcDbEntity
  8
0
  6
Continuous
 62
     7
370
    25
100
AcDbCircle
 10
11.09567387834018
 20
19.21827090150001
 30
0.0
 40
9.246031173034287
100
AcDbArc
 50
135.8525576761
 51
151.4620989912999
  0
ARC
  5
1D0
102
{ACAD_REACTORS
330
1F1
102
}
330
1F
100
AcDbEntity
  8
0
  6
Continuous
 62
     7
370
    25
100
AcDbCircle
 10
4.190680789640183
 20
25.92077039220001
 30
0.0
 40
0.3769844134828577
100
AcDbArc
 50
315.8525576761
 51
135.8525576761
  0
ARC
  5
1D1
102
{ACAD_REACTORS
330
1F1
102
}
330
1F
100
AcDbEntity
  8
0
  6
Continuous
 62
     7
370
    25
100
AcDbCircle
 10
11.09567387834018
 20
19.21827090150001
 30
0.0
 40
10.0
100
AcDbArc
 50
135.8525576761
 51
188.1474423239
  0
ARC
  5
1D2
102
{ACAD_REACTORS
330
1F1
102
}
330
1F
100
AcDbEntity
  8
0
  6
Continuous
 62
     7
370
    25
100
AcDbCircle
 10
1.569786769340185
 20
17.85448801340001
 30
0.0
 40
0.3769844134828582
100
AcDbArc
 50
188.1474423239
 51
8.147442323899989
  0
ARC
  5
1D3
102
{ACAD_REACTORS
330
1F1
102
}
330
1F
100
AcDbEntity
  8
0
  6
Continuous
 62
     7
370
    25
100
AcDbCircle
 10
11.09567387834018
 20
19.21827090150001
 30
0.0
 40
9.246031173034287
100
AcDbArc
 50
172.5379010087
 51
188.1474423239
  0
ARC
  5
1D4
102
{ACAD_REACTORS
330
1F1
102
}
330
1F
100
AcDbEntity
  8
0
  6
Continuous
 62
     7
370
    25
100
AcDbCircle
 10
2.423712955340183
 20
20.35412081690001
 30
0.0
 40
0.5000000000000001
100
AcDbArc
 50
86.08408577910001
 51
172.5379010087
  0
ARC
  5
1D5
102
{ACAD_REACTORS
330
1F1
102
}
330
1F
100
AcDbEntity
  8
0
  6
Continuous
 62
     7
370
    25
100
AcDbCircle
 10
1.506107206340184
 20
6.949064698200009
 30
0.0
 40
13.93642548665454
100
AcDbArc
 50
60.29397145090001
 51
86.08408577910001
  0
ARC
  5
1D6
102
{ACAD_REACTORS
330
1F1
102
}
330
1F
100
AcDbEntity
  8
0
  6
Continuous
 62
     7
370
    25
100
AcDbCircle
 10
7.916753650340184
 20
18.18537710670001
 30
0.0
 40
0.9999999999999987
100
AcDbArc
 50
335.7060285491
 51
60.29397145090001
  0
ARC
  5
1D7
102
{ACAD_REACTORS
330
1F1
102
}
330
1F
100
AcDbEntity
  8
0
  6
Continuous
 62
     7
370
    25
100
AcDbCircle
 10
-3.874106991659814
 20
23.50766136180001
 30
0.0
 40
13.93642548665454
100
AcDbArc
 50
309.9159142209
 51
335.7060285491
  0
ARC
  5
1D8
102
{ACAD_REACTORS
330
1F1
102
}
330
1F
100
AcDbEntity
  8
0
  6
Continuous
 62
     7
370
    25
100
AcDbCircle
 10
4.747545946240183
 20
13.20209827790001
 30
0.0
 40
0.5000000000000019
100
AcDbArc
 50
223.4620989913
 51
309.9159142209
  0
ARC
  5
1D9
102
{ACAD_REACTORS
330
1F1
102
}
330
1F
100
AcDbEntity
  8
0
  6
Continuous
 62
     7
370
    25
100
AcDbCircle
 10
11.09567387834018
 20
19.21827090150001
 30
0.0
 40
9.246031173034287
100
AcDbArc
 50
207.8525576761001
 51
223.4620989913
  0
ARC
  5
1DA
102
{ACAD_REACTORS
330
1F1
102
}
330
1F
100
AcDbEntity
  8
0
  6
Continuous
 62
     7
370
    25
100
AcDbCircle
 10
2.587457851740184
 20
14.72241847690001
 30
0.0
 40
0.3769844134828575
100
AcDbArc
 50
27.85255767610009
 51
207.8525576761001
  0
ARC
  5
1DB
102
{ACAD_REACTORS
330
1F1
102
}
330
1F
100
AcDbEntity
  8
0
  6
Continuous
 62
     7
370
    25
100
AcDbCircle
 10
11.09567387834018
 20
19.21827090150001
 30
0.0
 40
10.0
100
AcDbArc
 50
207.8525576761001
 51
260.1474423239
  0
ARC
  5
1DC
102
{ACAD_REACTORS
330
1F1
102
}
330
1F
100
AcDbEntity
  8
0
  6
Continuous
 62
     7
370
    25
100
AcDbCircle
 10
9.449047477640183
 20
9.737181804000009
 30
0.0
 40
0.3769844134828584
100
AcDbArc
 50
260.1474423239
 51
80.14744232390004
  0
ARC
  5
1DD
102
{ACAD_REACTORS
330
1F1
102
}
330
1F
100
AcDbEntity
  8
0
  6
Continuous
 62
     7
370
    25
100
AcDbCircle
 10
11.09567387834018
 20
19.21827090150001
 30
0.0
 40
9.246031173034287
100
AcDbArc
 50
244.5379010087
 51
260.1474423239
  0
ARC
  5
1DE
102
{ACAD_REACTORS
330
1F1
102
}
330
1F
100
AcDbEntity
  8
0
  6
Continuous
 62
     7
370
    25
100
AcDbCircle
 10
7.335633114940184
 20
11.32174288360001
 30
0.0
 40
0.5000000000000022
100
AcDbArc
 50
158.0840857791
 51
244.5379010087
  0
ARC
  5
1DF
102
{ACAD_REACTORS
330
1F1
102
}
330
1F
100
AcDbEntity
  8
0
  6
Continuous
 62
     7
370
    25
100
AcDbCircle
 10
19.80104331744018
 20
6.306657805300011
 30
0.0
 40
13.93642548665454
100
AcDbArc
 50
132.2939714509
 51
158.0840857791
  0
ARC
  5
1E0
102
{ACAD_REACTORS
330
1F1
102
}
330
1F
100
AcDbEntity
  8
0
  6
Continuous
 62
     7
370
    25
100
AcDbCircle
 10
11.09567387834018
 20
15.87575636790001
 30
0.0
 40
1.000000000000001
100
AcDbArc
 50
47.70602854910003
 51
132.2939714509
  0
ARC
  5
1E1
102
{ACAD_REACTORS
330
1F1
102
}
330
1F
100
AcDbEntity
  8
0
  6
Continuous
 62
     7
370
    25
100
AcDbCircle
 10
2.390304439240184
 20
6.306657805300011
 30
0.0
 40
13.93642548665454
100
AcDbArc
 50
21.91591422089994
 51
47.70602854910003
  0
ARC
  5
1E2
102
{ACAD_REACTORS
330
1F1
102
}
330
1F
100
AcDbEntity
  8
0
  6
Continuous
 62
     7
370
    25
100
AcDbCircle
 10
14.85571464174018
 20
11.32174288360001
 30
0.0
 40
0.5000000000000029
100
AcDbArc
 50
295.4620989913
 51
21.91591422089994
  0
ARC
  5
1E3
102
{ACAD_REACTORS
330
1F1
102
}
330
1F
100
AcDbEntity
  8
0
  6
Continuous
 62
     7
370
    25
100
AcDbCircle
 10
11.09567387834018
 20
19.21827090150001
 30
0.0
 40
9.246031173034287
100
AcDbArc
 50
279.8525576761
 51
295.4620989913
  0
ARC
  5
1E4
102
{ACAD_REACTORS
330
1F1
102
}
330
1F
100
AcDbEntity
  8
0
  6
Continuous
 62
     7
370
    25
100
AcDbCircle
 10
12.74230027904018
 20
9.737181804000009
 30
0.0
 40
0.3769844134828569
100
AcDbArc
 50
99.85255767609997
 51
279.8525576761
  0
ARC
  5
1E5
102
{ACAD_REACTORS
330
1F1
102
}
330
1F
100
AcDbEntity
  8
0
  6
Continuous
 62
     7
370
    25
100
AcDbCircle
 10
11.09567387834018
 20
19.21827090150001
 30
0.0
 40
10.0
100
AcDbArc
 50
279.8525576761
 51
332.1474423238999
  0
ARC
  5
1E6
102
{ACAD_REACTORS
330
1F1
102
}
330
1F
100
AcDbEntity
  8
0
  6
Continuous
 62
     7
370
    25
100
AcDbCircle
 10
19.60388990494018
 20
14.72241847690001
 30
0.0
 40
0.3769844134828573
100
AcDbArc
 50
332.1474423238999
 51
152.1474423238999
  0
ARC
  5
1E7
102
{ACAD_REACTORS
330
1F1
102
}
330
1F
100
AcDbEntity
  8
0
  6
Continuous
 62
     7
370
    25
100
AcDbCircle
 10
11.09567387834018
 20
19.21827090150001
 30
0.0
 40
9.246031173034287
100
AcDbArc
 50
316.5379010087
 51
332.1474423238999
  0
ARC
  5
1E8
102
{ACAD_REACTORS
330
1F1
102
}
330
1F
100
AcDbEntity
  8
0
  6
Continuous
 62
     7
370
    25
100
AcDbCircle
 10
17.44380181044018
 20
13.20209827790001
 30
0.0
 40
0.5000000000000014
100
AcDbArc
 50
230.0840857791
 51
316.5379010087
  0
ARC
  5
1E9
102
{ACAD_REACTORS
330
1F1
102
}
330
1F
100
AcDbEntity
  8
0
  6
Continuous
 62
     7
370
    25
100
AcDbCircle
 10
26.06545474834018
 20
23.50766136180001
 30
0.0
 40
13.93642548665454
100
AcDbArc
 50
204.2939714509
 51
230.0840857791
  0
ARC
  5
1EA
102
{ACAD_REACTORS
330
1F1
102
}
330
1F
100
AcDbEntity
  8
0
  6
Continuous
 62
     7
370
    25
100
AcDbCircle
 10
14.27459410634018
 20
18.18537710670001
 30
0.0
 40
1.000000000000001
100
AcDbArc
 50
119.7060285491
 51
204.2939714509
  0
ARC
  5
1EB
102
{ACAD_REACTORS
330
1F1
102
}
330
1F
100
AcDbEntity
  8
0
  6
Continuous
 62
     7
370
    25
100
AcDbCircle
 10
20.68524055034018
 20
6.949064698200009
 30
0.0
 40
13.93642548665454
100
AcDbArc
 50
93.9159142209
 51
119.7060285491
  0
ARC
  5
1EC
102
{ACAD_REACTORS
330
1F1
102
}
330
1F
100
AcDbEntity
  8
0
  6
Continuous
 62
     7
370
    25
100
AcDbCircle
 10
19.76763480134018
 20
20.35412081690001
 30
0.0
 40
0.5000000000000008
100
AcDbArc
 50
7.462098991299955
 51
93.9159142209
  0
ARC
  5
1ED
102
{ACAD_REACTORS
330
1F1
102
}
330
1F
100
AcDbEntity
  8
0
  6
Continuous
 62
     7
370
    25
100
AcDbCircle
 10
11.09567387834018
 20
19.21827090150001
 30
0.0
 40
9.246031173034287
100
AcDbArc
 50
351.8525576761001
 51
7.462098991299955
  0
ARC
  5
1EE
102
{ACAD_REACTORS
330
1F1
102
}
330
1F
100
AcDbEntity
  8
0
  6
Continuous
 62
     7
370
    25
100
AcDbCircle
 10
20.62156098734018
 20
17.85448801340001
 30
0.0
 40
0.3769844134828575
100
AcDbArc
 50
171.8525576761
 51
351.8525576761001
  0
ARC
  5
1EF
102
{ACAD_REACTORS
330
1F1
102
}
330
1F
100
AcDbEntity
  8
0
  6
Continuous
 62
     7
370
    25
100
AcDbCircle
 10
11.09567387834018
 20
19.21827090150001
 30
0.0
 40
10.0
100
AcDbArc
 50
351.8525576761001
 51
44.14744232389995
  0
ARC
  5
1F0
102
{ACAD_REACTORS
330
1F1
102
}
330
1F
100
AcDbEntity
  8
0
  6
Continuous
 62
     7
370
    25
100
AcDbCircle
 10
18.00066696704018
 20
25.92077039220001
 30
0.0
 40
0.3769844134828578
100
AcDbArc
 50
44.14744232389995
 51
224.1474423239
  0
CIRCLE
  5
1F2
102
{ACAD_REACTORS
330
225
102
}
330
1F
100
AcDbEntity
  8
0
  6
Continuous
 62
     7
370
    25
100
AcDbCircle
 10
-11.25875003784104
 20
19.50072709525872
 30
0.0
 40
1.5
  0
ARC
  5
1F3
102
{ACAD_REACTORS
330
225
102
}
330
1F
100
AcDbEntity
  8
0
  6
Continuous
 62
     7
370
    25
100
AcDbCircle
 10
-11.25875003784104
 20
19.50072709525872
 30
0.0
 40
9.246031173034287
100
AcDbArc
 50
28.53790100869991
 51
44.14744232389995
  0
ARC
  5
1F4
102
{ACAD_REACTORS
330
225
102
}
330
1F
100
AcDbEntity
  8
0
  6
Continuous
 62
     7
370
    25
100
AcDbCircle
 10
-3.575350447541047
 20
23.67905594955872
 30
0.0
 40
0.5000000000000014
100
AcDbArc
 50
302.0840857791
 51
28.53790100869991
  0
ARC
  5
1F5
102
{ACAD_REACTORS
330
225
102
}
330
1F
100
AcDbEntity
  8
0
  6
Continuous
 62
     7
370
    25
100
AcDbCircle
 10
-10.71228609514104
 20
35.06332928695873
 30
0.0
 40
13.93642548665454
100
AcDbArc
 50
276.2939714509
 51
302.0840857791
  0
ARC
  5
1F6
102
{ACAD_REACTORS
330
225
102
}
330
1F
100
AcDbEntity
  8
0
  6
Continuous
 62
     7
370
    25
100
AcDbCircle
 10
-9.294069289441047
 20
22.20487815685872
 30
0.0
 40
1.000000000000001
100
AcDbArc
 50
191.7060285491
 51
276.2939714509
  0
ARC
  5
1F7
102
{ACAD_REACTORS
330
225
102
}
330
1F
100
AcDbEntity
  8
0
  6
Continuous
 62
     7
370
    25
100
AcDbCircle
 10
3.373297541958953
 20
24.82955374285872
 30
0.0
 40
13.93642548665454
100
AcDbArc
 50
165.9159142209
 51
191.7060285491
  0
ARC
  5
1F8
102
{ACAD_REACTORS
330
225
102
}
330
1F
100
AcDbEntity
  8
0
  6
Continuous
 62
     7
370
    25
100
AcDbCircle
 10
-9.659224201741047
 20
28.09924896705873
 30
0.0
 40
0.5
100
AcDbArc
 50
79.46209899130002
 51
165.9159142209
  0
ARC
  5
1F9
102
{ACAD_REACTORS
330
225
102
}
330
1F
100
AcDbEntity
  8
0
  6
Continuous
 62
     7
370
    25
100
AcDbCircle
 10
-11.25875003784104
 20
19.50072709525872
 30
0.0
 40
9.246031173034287
100
AcDbArc
 50
63.85255767610004
 51
79.46209899130002
  0
ARC
  5
1FA
102
{ACAD_REACTORS
330
225
102
}
330
1F
100
AcDbEntity
  8
0
  6
Continuous
 62
     7
370
    25
100
AcDbCircle
 10
-7.018054432141046
 20
28.13895201465873
 30
0.0
 40
0.3769844134828579
100
AcDbArc
 50
243.8525576761
 51
63.85255767610004
  0
ARC
  5
1FB
102
{ACAD_REACTORS
330
225
102
}
330
1F
100
AcDbEntity
  8
0
  6
Continuous
 62
     7
370
    25
100
AcDbCircle
 10
-11.25875003784104
 20
19.50072709525872
 30
0.0
 40
10.0
100
AcDbArc
 50
63.85255767610004
 51
116.1474423238999
  0
ARC
  5
1FC
102
{ACAD_REACTORS
330
225
102
}
330
1F
100
AcDbEntity
  8
0
  6
Continuous
 62
     7
370
    25
100
AcDbCircle
 10
-15.49944564354104
 20
28.13895201465873
 30
0.0
 40
0.3769844134828583
100
AcDbArc
 50
116.1474423238999
 51
296.1474423239
  0
ARC
  5
1FD
102
{ACAD_REACTORS
330
225
102
}
330
1F
100
AcDbEntity
  8
0
  6
Continuous
 62
     7
370
    25
100
AcDbCircle
 10
-11.25875003784104
 20
19.50072709525872
 30
0.0
 40
9.246031173034287
100
AcDbArc
 50
100.5379010086999
 51
116.1474423238999
  0
ARC
  5
1FE
102
{ACAD_REACTORS
330
225
102
}
330
1F
100
AcDbEntity
  8
0
  6
Continuous
 62
     7
370
    25
100
AcDbCircle
 10
-12.85827587394104
 20
28.09924896705873
 30
0.0
 40
0.5000000000000004
100
AcDbArc
 50
14.08408577909996
 51
100.5379010086999
  0
ARC
  5
1FF
102
{ACAD_REACTORS
330
225
102
}
330
1F
100
AcDbEntity
  8
0
  6
Continuous
 62
     7
370
    25
100
AcDbCircle
 10
-25.89079761764105
 20
24.82955374285872
 30
0.0
 40
13.93642548665454
100
AcDbArc
 50
346.3829499841001
 51
14.08408577909996
  0
ARC
  5
200
102
{ACAD_REACTORS
330
225
102
}
330
1F
100
AcDbEntity
  8
0
  6
Continuous
 62
     7
370
    25
100
AcDbCircle
 10
-12.83205682714104
 20
21.66619811545873
 30
0.0
 40
0.5000000000000038
100
AcDbArc
 50
265.6170500159001
 51
346.3829499841001
  0
ARC
  5
201
102
{ACAD_REACTORS
330
225
102
}
330
1F
100
AcDbEntity
  8
0
  6
Continuous
 62
     7
370
    25
100
AcDbCircle
 10
-11.80521398054104
 20
35.06332928695873
 30
0.0
 40
13.93642548665454
100
AcDbArc
 50
237.9159142209
 51
265.6170500159001
  0
ARC
  5
202
102
{ACAD_REACTORS
330
225
102
}
330
1F
100
AcDbEntity
  8
0
  6
Continuous
 62
     7
370
    25
100
AcDbCircle
 10
-18.94214962814104
 20
23.67905594955872
 30
0.0
 40
0.5000000000000018
100
AcDbArc
 50
151.4620989912999
 51
237.9159142209
  0
ARC
  5
203
102
{ACAD_REACTORS
330
225
102
}
330
1F
100
AcDbEntity
  8
0
  6
Continuous
 62
     7
370
    25
100
AcDbCircle
 10
-11.25875003784104
 20
19.50072709525872
 30
0.0
 40
9.246031173034287
100
AcDbArc
 50
135.8525576761
 51
151.4620989912999
  0
ARC
  5
204
102
{ACAD_REACTORS
330
225
102
}
330
1F
100
AcDbEntity
  8
0
  6
Continuous
 62
     7
370
    25
100
AcDbCircle
 10
-18.16374312654104
 20
26.20322658595873
 30
0.0
 40
0.3769844134828577
100
AcDbArc
 50
315.8525576761
 51
135.8525576761
  0
ARC
  5
205
102
{ACAD_REACTORS
330
225
102
}
330
1F
100
AcDbEntity
  8
0
  6
Continuous
 62
     7
370
    25
100
AcDbCircle
 10
-11.25875003784104
 20
19.50072709525872
 30
0.0
 40
10.0
100
AcDbArc
 50
135.8525576761
 51
188.1474423239
  0
ARC
  5
206
102
{ACAD_REACTORS
330
225
102
}
330
1F
100
AcDbEntity
  8
0
  6
Continuous
 62
     7
370
    25
100
AcDbCircle
 10
-20.78463714684104
 20
18.13694420715872
 30
0.0
 40
0.3769844134828582
100
AcDbArc
 50
188.1474423239
 51
8.147442323899989
  0
ARC
  5
207
102
{ACAD_REACTORS
330
225
102
}
330
1F
100
AcDbEntity
  8
0
  6
Continuous
 62
     7
370
    25
100
AcDbCircle
 10
-11.25875003784104
 20
19.50072709525872
 30
0.0
 40
9.246031173034287
100
AcDbArc
 50
172.5379010087
 51
188.1474423239
  0
ARC
  5
208
102
{ACAD_REACTORS
330
225
102
}
330
1F
100
AcDbEntity
  8
0
  6
Continuous
 62
     7
370
    25
100
AcDbCircle
 10
-19.93071096084104
 20
20.63657701065872
 30
0.0
 40
0.5000000000000001
100
AcDbArc
 50
86.08408577910001
 51
172.5379010087
  0
ARC
  5
209
102
{ACAD_REACTORS
330
225
102
}
330
1F
100
AcDbEntity
  8
0
  6
Continuous
 62
     7
370
    25
100
AcDbCircle
 10
-20.84831670984105
 20
7.231520891958725
 30
0.0
 40
13.93642548665454
100
AcDbArc
 50
60.29397145090001
 51
86.08408577910001
  0
ARC
  5
20A
102
{ACAD_REACTORS
330
225
102
}
330
1F
100
AcDbEntity
  8
0
  6
Continuous
 62
     7
370
    25
100
AcDbCircle
 10
-14.43767026584104
 20
18.46783330045872
 30
0.0
 40
0.9999999999999987
100
AcDbArc
 50
335.7060285491
 51
60.29397145090001
  0
ARC
  5
20B
102
{ACAD_REACTORS
330
225
102
}
330
1F
100
AcDbEntity
  8
0
  6
Continuous
 62
     7
370
    25
100
AcDbCircle
 10
-26.22853090784105
 20
23.79011755555872
 30
0.0
 40
13.93642548665454
100
AcDbArc
 50
309.9159142209
 51
335.7060285491
  0
ARC
  5
20C
102
{ACAD_REACTORS
330
225
102
}
330
1F
100
AcDbEntity
  8
0
  6
Continuous
 62
     7
370
    25
100
AcDbCircle
 10
-17.60687796994104
 20
13.48455447165872
 30
0.0
 40
0.5000000000000019
100
AcDbArc
 50
223.4620989913
 51
309.9159142209
  0
ARC
  5
20D
102
{ACAD_REACTORS
330
225
102
}
330
1F
100
AcDbEntity
  8
0
  6
Continuous
 62
     7
370
    25
100
AcDbCircle
 10
-11.25875003784104
 20
19.50072709525872
 30
0.0
 40
9.246031173034287
100
AcDbArc
 50
207.8525576761001
 51
223.4620989913
  0
ARC
  5
20E
102
{ACAD_REACTORS
330
225
102
}
330
1F
100
AcDbEntity
  8
0
  6
Continuous
 62
     7
370
    25
100
AcDbCircle
 10
-19.76696606444104
 20
15.00487467065872
 30
0.0
 40
0.3769844134828575
100
AcDbArc
 50
27.85255767610009
 51
207.8525576761001
  0
ARC
  5
20F
102
{ACAD_REACTORS
330
225
102
}
330
1F
100
AcDbEntity
  8
0
  6
Continuous
 62
     7
370
    25
100
AcDbCircle
 10
-11.25875003784104
 20
19.50072709525872
 30
0.0
 40
10.0
100
AcDbArc
 50
207.8525576761001
 51
260.1474423239
  0
ARC
  5
210
102
{ACAD_REACTORS
330
225
102
}
330
1F
100
AcDbEntity
  8
0
  6
Continuous
 62
     7
370
    25
100
AcDbCircle
 10
-12.90537643854104
 20
10.01963799775872
 30
0.0
 40
0.3769844134828584
100
AcDbArc
 50
260.1474423239
 51
80.14744232390004
  0
ARC
  5
211
102
{ACAD_REACTORS
330
225
102
}
330
1F
100
AcDbEntity
  8
0
  6
Continuous
 62
     7
370
    25
100
AcDbCircle
 10
-11.25875003784104
 20
19.50072709525872
 30
0.0
 40
9.246031173034287
100
AcDbArc
 50
244.5379010086999
 51
260.1474423239
  0
ARC
  5
212
102
{ACAD_REACTORS
330
225
102
}
330
1F
100
AcDbEntity
  8
0
  6
Continuous
 62
     7
370
    25
100
AcDbCircle
 10
-15.01879080124104
 20
11.60419907735872
 30
0.0
 40
0.5000000000000022
100
AcDbArc
 50
158.0840857791
 51
244.5379010086999
  0
ARC
  5
213
102
{ACAD_REACTORS
330
225
102
}
330
1F
100
AcDbEntity
  8
0
  6
Continuous
 62
     7
370
    25
100
AcDbCircle
 10
-2.553380598741046
 20
6.589113999058726
 30
0.0
 40
13.93642548665454
100
AcDbArc
 50
132.2939714509
 51
158.0840857791
  0
ARC
  5
214
102
{ACAD_REACTORS
330
225
102
}
330
1F
100
AcDbEntity
  8
0
  6
Continuous
 62
     7
370
    25
100
AcDbCircle
 10
-11.25875003784104
 20
16.15821256165872
 30
0.0
 40
1.000000000000001
100
AcDbArc
 50
47.70602854909995
 51
132.2939714509
  0
ARC
  5
215
102
{ACAD_REACTORS
330
225
102
}
330
1F
100
AcDbEntity
  8
0
  6
Continuous
 62
     7
370
    25
100
AcDbCircle
 10
-19.96411947694104
 20
6.589113999058726
 30
0.0
 40
13.93642548665454
100
AcDbArc
 50
21.91591422089994
 51
47.70602854909995
  0
ARC
  5
216
102
{ACAD_REACTORS
330
225
102
}
330
1F
100
AcDbEntity
  8
0
  6
Continuous
 62
     7
370
    25
100
AcDbCircle
 10
-7.498709274441047
 20
11.60419907735872
 30
0.0
 40
0.5000000000000029
100
AcDbArc
 50
295.4620989913
 51
21.91591422089994
  0
ARC
  5
217
102
{ACAD_REACTORS
330
225
102
}
330
1F
100
AcDbEntity
  8
0
  6
Continuous
 62
     7
370
    25
100
AcDbCircle
 10
-11.25875003784104
 20
19.50072709525872
 30
0.0
 40
9.246031173034287
100
AcDbArc
 50
279.8525576761
 51
295.4620989913
  0
ARC
  5
218
102
{ACAD_REACTORS
330
225
102
}
330
1F
100
AcDbEntity
  8
0
  6
Continuous
 62
     7
370
    25
100
AcDbCircle
 10
-9.612123637141046
 20
10.01963799775872
 30
0.0
 40
0.3769844134828569
100
AcDbArc
 50
99.85255767609997
 51
279.8525576761
  0
ARC
  5
219
102
{ACAD_REACTORS
330
225
102
}
330
1F
100
AcDbEntity
  8
0
  6
Continuous
 62
     7
370
    25
100
AcDbCircle
 10
-11.25875003784104
 20
19.50072709525872
 30
0.0
 40
10.0
100
AcDbArc
 50
279.8525576761
 51
332.1474423238999
  0
ARC
  5
21A
102
{ACAD_REACTORS
330
225
102
}
330
1F
100
AcDbEntity
  8
0
  6
Continuous
 62
     7
370
    25
100
AcDbCircle
 10
-2.750534011241047
 20
15.00487467065872
 30
0.0
 40
0.3769844134828573
100
AcDbArc
 50
332.1474423238999
 51
152.1474423238999
  0
ARC
  5
21B
102
{ACAD_REACTORS
330
225
102
}
330
1F
100
AcDbEntity
  8
0
  6
Continuous
 62
     7
370
    25
100
AcDbCircle
 10
-11.25875003784104
 20
19.50072709525872
 30
0.0
 40
9.246031173034287
100
AcDbArc
 50
316.5379010087
 51
332.1474423238999
  0
ARC
  5
21C
102
{ACAD_REACTORS
330
225
102
}
330
1F
100
AcDbEntity
  8
0
  6
Continuous
 62
     7
370
    25
100
AcDbCircle
 10
-4.910622105741046
 20
13.48455447165872
 30
0.0
 40
0.5000000000000014
100
AcDbArc
 50
230.0840857791
 51
316.5379010087
  0
ARC
  5
21D
102
{ACAD_REACTORS
330
225
102
}
330
1F
100
AcDbEntity
  8
0
  6
Continuous
 62
     7
370
    25
100
AcDbCircle
 10
3.711030832158952
 20
23.79011755555872
 30
0.0
 40
13.93642548665454
100
AcDbArc
 50
204.2939714509
 51
230.0840857791
  0
ARC
  5
21E
102
{ACAD_REACTORS
330
225
102
}
330
1F
100
AcDbEntity
  8
0
  6
Continuous
 62
     7
370
    25
100
AcDbCircle
 10
-8.079829809841047
 20
18.46783330045872
 30
0.0
 40
1.000000000000001
100
AcDbArc
 50
119.7060285491
 51
204.2939714509
  0
ARC
  5
21F
102
{ACAD_REACTORS
330
225
102
}
330
1F
100
AcDbEntity
  8
0
  6
Continuous
 62
     7
370
    25
100
AcDbCircle
 10
-1.669183365841046
 20
7.231520891958725
 30
0.0
 40
13.93642548665454
100
AcDbArc
 50
93.9159142209
 51
119.7060285491
  0
ARC
  5
220
102
{ACAD_REACTORS
330
225
102
}
330
1F
100
AcDbEntity
  8
0
  6
Continuous
 62
     7
370
    25
100
AcDbCircle
 10
-2.586789114841046
 20
20.63657701065872
 30
0.0
 40
0.5000000000000008
100
AcDbArc
 50
7.462098991299955
 51
93.9159142209
  0
ARC
  5
221
102
{ACAD_REACTORS
330
225
102
}
330
1F
100
AcDbEntity
  8
0
  6
Continuous
 62
     7
370
    25
100
AcDbCircle
 10
-11.25875003784104
 20
19.50072709525872
 30
0.0
 40
9.246031173034287
100
AcDbArc
 50
351.8525576761001
 51
7.462098991299955
  0
ARC
  5
222
102
{ACAD_REACTORS
330
225
102
}
330
1F
100
AcDbEntity
  8
0
  6
Continuous
 62
     7
370
    25
100
AcDbCircle
 10
-1.732862928841047
 20
18.13694420715872
 30
0.0
 40
0.3769844134828575
100
AcDbArc
 50
171.8525576761
 51
351.8525576761001
  0
ARC
  5
223
102
{ACAD_REACTORS
330
225
102
}
330
1F
100
AcDbEntity
  8
0
  6
Continuous
 62
     7
370
    25
100
AcDbCircle
 10
-11.25875003784104
 20
19.50072709525872
 30
0.0
 40
10.0
100
AcDbArc
 50
351.8525576761001
 51
44.14744232389995
  0
ARC
  5
224
102
{ACAD_REACTORS
330
225
102
}
330
1F
100
AcDbEntity
  8
0
  6
Continuous
 62
     7
370
    25
100
AcDbCircle
 10
-4.353756949141046
 20
26.20322658595873
 30
0.0
 40
0.3769844134828578
100
AcDbArc
 50
44.14744232389995
 51
224.1474423239
  0
ENDSEC
  0
SECTION
  2
OBJECTS
  0
DICTIONARY
  5
C
330
0
100
AcDbDictionary
281
     1
  3
ACAD_CIP_PREVIOUS_PRODUCT_INFO
350
E8
  3
ACAD_COLOR
350
DD
  3
ACAD_DETAILVIEWSTYLE
350
E4
  3
ACAD_GROUP
350
D
  3
ACAD_LAYOUT
350
1A
  3
ACAD_MATERIAL
350
AB
  3
ACAD_MLEADERSTYLE
350
E0
  3
ACAD_MLINESTYLE
350
17
  3
ACAD_PLOTSETTINGS
350
19
  3
ACAD_PLOTSTYLENAME
350
E
  3
ACAD_SCALELIST
350
47
  3
ACAD_SECTIONVIEWSTYLE
350
E2
  3
ACAD_TABLESTYLE
350
DE
  3
ACAD_VISUALSTYLE
350
C4
  3
ACDB_RECOMPOSE_DATA
350
239
  3
AcDbVariableDictionary
350
228
  0
DICTIONARY
  5
226
330
10
100
AcDbDictionary
280
     1
281
     1
  3
ADSK_XREC_LAYER_RECONCILED
360
227
  0
XRECORD
  5
E8
102
{ACAD_REACTORS
330
C
102
}
330
C
100
AcDbXrecord
280
     1
300
ACD
300
2017
300

  0
DICTIONARY
  5
DD
102
{ACAD_REACTORS
330
C
102
}
330
C
100
AcDbDictionary
281
     1
  0
DICTIONARY
  5
E4
102
{ACAD_REACTORS
330
C
102
}
330
C
100
AcDbDictionary
281
     1
  3
Metric50
350
E5
  0
DICTIONARY
  5
D
102
{ACAD_REACTORS
330
C
102
}
330
C
100
AcDbDictionary
281
     1
  3
*A1
350
189
  3
*A2
350
1BD
  3
*A3
350
1F1
  3
*A4
350
225
  0
DICTIONARY
  5
1A
102
{ACAD_REACTORS
330
C
102
}
330
C
100
AcDbDictionary
281
     1
  3
Layout1
350
1E
  3
Layout2
350
26
  3
Model
350
22
  0
DICTIONARY
  5
AB
102
{ACAD_REACTORS
330
C
102
}
330
C
100
AcDbDictionary
281
     1
  3
ByBlock
350
B4
  3
ByLayer
350
AC
  3
Global
350
BC
  0
DICTIONARY
  5
E0
102
{ACAD_REACTORS
330
C
102
}
330
C
100
AcDbDictionary
281
     1
  3
Standard
350
E1
  0
DICTIONARY
  5
17
102
{ACAD_REACTORS
330
C
102
}
330
C
100
AcDbDictionary
281
     1
  3
Standard
350
18
  0
DICTIONARY
  5
19
102
{ACAD_REACTORS
330
C
102
}
330
C
100
AcDbDictionary
281
     1
  0
ACDBDICTIONARYWDFLT
  5
E
102
{ACAD_REACTORS
330
C
102
}
330
C
100
AcDbDictionary
281
     1
  3
Normal
350
F
100
AcDbDictionaryWithDefault
340
F
  0
DICTIONARY
  5
47
102
{ACAD_REACTORS
330
C
102
}
330
C
100
AcDbDictionary
281
     1
  3
A0
350
48
  3
A1
350
49
  3
A2
350
4A
  3
A3
350
4B
  3
A4
350
4C
  3
A5
350
4D
  3
A6
350
4E
  3
A7
350
4F
  3
A8
350
50
  3
A9
350
51
  3
B0
350
52
  3
B1
350
53
  3
B2
350
54
  3
B3
350
55
  3
B4
350
56
  3
B5
350
57
  3
B6
350
58
  3
B7
350
59
  3
B8
350
5A
  3
B9
350
5B
  3
C0
350
5C
  3
C1
350
5D
  3
C2
350
5E
  3
C3
350
5F
  3
C4
350
60
  3
C5
350
61
  3
C6
350
62
  3
C7
350
63
  3
C8
350
64
  3
C9
350
65
  3
D0
350
66
  3
D1
350
67
  3
D2
350
68
  0
DICTIONARY
  5
E2
102
{ACAD_REACTORS
330
C
102
}
330
C
100
AcDbDictionary
281
     1
  3
Metric50
350
E3
  0
DICTIONARY
  5
DE
102
{ACAD_REACTORS
330
C
102
}
330
C
100
AcDbDictionary
281
     1
  3
Standard
350
DF
  0
DICTIONARY
  5
C4
102
{ACAD_REACTORS
330
C
102
}
330
C
100
AcDbDictionary
281
     1
  3
2dWireframe
350
CA
  3
Basic
350
C9
  3
Brighten
350
D0
  3
ColorChange
350
D4
  3
Conceptual
350
CD
  3
Dim
350
CF
  3
EdgeColorOff
350
DC
  3
Facepattern
350
D3
  3
Flat
350
C5
  3
FlatWithEdges
350
C6
  3
Gouraud
350
C7
  3
GouraudWithEdges
350
C8
  3
Hidden
350
CC
  3
JitterOff
350
DA
  3
Linepattern
350
D2
  3
OverhangOff
350
DB
  3
Realistic
350
CE
  3
Shaded
350
D9
  3
Shaded with edges
350
D8
  3
Shades of Gray
350
D5
  3
Sketchy
350
D6
  3
Thicken
350
D1
  3
Wireframe
350
CB
  3
X-Ray
350
D7
  0
XRECORD
  5
239
102
{ACAD_REACTORS
330
C
102
}
330
C
100
AcDbXrecord
280
     1
 90
        1
330
DF
330
E3
330
E5
  0
DICTIONARY
  5
228
102
{ACAD_REACTORS
330
C
102
}
330
C
100
AcDbDictionary
281
     1
  3
CANNOSCALE
350
22E
  3
CMLEADERSTYLE
350
22A
  3
CTABLESTYLE
350
229
  3
CVIEWDETAILSTYLE
350
22B
  3
CVIEWSECTIONSTYLE
350
22C
  3
LAYEREVAL
350
230
  3
LAYERNOTIFY
350
231
  3
LIGHTINGUNITS
350
22F
  3
MSLTSCALE
350
22D
  0
XRECORD
  5
227
102
{ACAD_REACTORS
330
226
102
}
330
226
100
AcDbXrecord
280
     1
290
     1
  0
ACDBDETAILVIEWSTYLE
  5
E5
102
{ACAD_XDICTIONARY
360
237
102
}
102
{ACAD_REACTORS
330
E4
102
}
330
E4
100
AcDbModelDocViewStyle
 70
     0
  3
Metric50
290
     0
100
AcDbDetailViewStyle
 70
     0
 71
     0
 90
        3
 71
     1
340
11
 62
   256
 40
5.0
340
0
 62
   256
 40
5.0
300

 40
0.0
280
     1
 71
     2
340
16
 90
       25
 62
   256
 71
     3
340
11
 62
   256
 40
5.0
 90
        0
 40
15.0
 90
        1
300
%<\AcVar ViewDetailId>% (%<\AcVar ViewScale \f "%sn">%)
 71
     4
340
16
 90
       25
 62
   256
340
16
 90
       25
 62
   256
280
     0
  0
GROUP
  5
189
102
{ACAD_REACTORS
330
D
102
}
330
D
100
AcDbGroup
300

 70
     1
 71
     1
340
A5
340
A4
340
A3
340
A2
340
A1
340
A0
340
9F
340
9E
340
9D
340
9C
340
9B
340
9A
340
99
340
98
340
97
340
96
340
95
340
94
340
93
340
92
340
91
340
90
340
8F
340
8E
340
8D
340
8C
340
8B
340
8A
340
89
340
88
340
87
340
86
340
85
340
84
340
83
340
82
340
81
340
80
340
7F
340
7E
340
7D
340
7C
340
7B
340
7A
340
79
340
78
340
77
340
76
340
75
340
74
340
73
  0
GROUP
  5
1BD
102
{ACAD_REACTORS
330
D
102
}
330
D
100
AcDbGroup
300

 70
     1
 71
     1
340
1BC
340
1BB
340
1BA
340
1B9
340
1B8
340
1B7
340
1B6
340
1B5
340
1B4
340
1B3
340
1B2
340
1B1
340
1B0
340
1AF
340
1AE
340
1AD
340
1AC
340
1AB
340
1AA
340
1A9
340
1A8
340
1A7
340
1A6
340
1A5
340
1A4
340
1A3
340
1A2
340
1A1
340
1A0
340
19F
340
19E
340
19D
340
19C
340
19B
340
19A
340
199
340
198
340
197
340
196
340
195
340
194
340
193
340
192
340
191
340
190
340
18F
340
18E
340
18D
340
18C
340
18B
340
18A
  0
GROUP
  5
1F1
102
{ACAD_REACTORS
330
D
102
}
330
D
100
AcDbGroup
300

 70
     1
 71
     1
340
1F0
340
1EF
340
1EE
340
1ED
340
1EC
340
1EB
340
1EA
340
1E9
340
1E8
340
1E7
340
1E6
340
1E5
340
1E4
340
1E3
340
1E2
340
1E1
340
1E0
340
1DF
340
1DE
340
1DD
340
1DC
340
1DB
340
1DA
340
1D9
340
1D8
340
1D7
340
1D6
340
1D5
340
1D4
340
1D3
340
1D2
340
1D1
340
1D0
340
1CF
340
1CE
340
1CD
340
1CC
340
1CB
340
1CA
340
1C9
340
1C8
340
1C7
340
1C6
340
1C5
340
1C4
340
1C3
340
1C2
340
1C1
340
1C0
340
1BF
340
1BE
  0
GROUP
  5
225
102
{ACAD_REACTORS
330
D
102
}
330
D
100
AcDbGroup
300

 70
     1
 71
     1
340
224
340
223
340
222
340
221
340
220
340
21F
340
21E
340
21D
340
21C
340
21B
340
21A
340
219
340
218
340
217
340
216
340
215
340
214
340
213
340
212
340
211
340
210
340
20F
340
20E
340
20D
340
20C
340
20B
340
20A
340
209
340
208
340
207
340
206
340
205
340
204
340
203
340
202
340
201
340
200
340
1FF
340
1FE
340
1FD
340
1FC
340
1FB
340
1FA
340
1F9
340
1F8
340
1F7
340
1F6
340
1F5
340
1F4
340
1F3
340
1F2
  0
LAYOUT
  5
1E
102
{ACAD_REACTORS
330
1A
102
}
330
1A
100
AcDbPlotSettings
  1

  2
none_device
  4

  6

 40
0.0
 41
0.0
 42
0.0
 43
0.0
 44
0.0
 45
0.0
 46
0.0
 47
0.0
 48
0.0
 49
0.0
140
0.0
141
0.0
142
1.0
143
1.0
 70
   688
 72
     1
 73
     0
 74
     5
  7

 75
    16
147
1.0
 76
     0
 77
     2
 78
   300
148
0.0
149
0.0
100
AcDbLayout
  1
Layout1
 70
     1
 71
     1
 10
0.0
 20
0.0
 11
420.0
 21
297.0
 12
0.0
 22
0.0
 32
0.0
 14
1.000000000000000E+20
 24
1.000000000000000E+20
 34
1.000000000000000E+20
 15
-1.000000000000000E+20
 25
-1.000000000000000E+20
 35
-1.000000000000000E+20
146
0.0
 13
0.0
 23
0.0
 33
0.0
 16
1.0
 26
0.0
 36
0.0
 17
0.0
 27
1.0
 37
0.0
 76
     0
330
1B
  0
LAYOUT
  5
26
102
{ACAD_REACTORS
330
1A
102
}
330
1A
100
AcDbPlotSettings
  1

  2
none_device
  4

  6

 40
0.0
 41
0.0
 42
0.0
 43
0.0
 44
0.0
 45
0.0
 46
0.0
 47
0.0
 48
0.0
 49
0.0
140
0.0
141
0.0
142
1.0
143
1.0
 70
   688
 72
     1
 73
     0
 74
     5
  7

 75
    16
147
1.0
 76
     0
 77
     2
 78
   300
148
0.0
149
0.0
100
AcDbLayout
  1
Layout2
 70
     1
 71
     2
 10
0.0
 20
0.0
 11
0.0
 21
0.0
 12
0.0
 22
0.0
 32
0.0
 14
0.0
 24
0.0
 34
0.0
 15
0.0
 25
0.0
 35
0.0
146
0.0
 13
0.0
 23
0.0
 33
0.0
 16
1.0
 26
0.0
 36
0.0
 17
0.0
 27
1.0
 37
0.0
 76
     0
330
23
  0
LAYOUT
  5
22
102
{ACAD_REACTORS
330
1A
102
}
330
1A
100
AcDbPlotSettings
  1

  2
none_device
  4
ANSI_A_(11.00_x_8.50_Inches)
  6

 40
6.349999999999999
 41
19.05
 42
6.350005079999999
 43
19.05000254
 44
279.4
 45
215.9
 46
133.34999746
 47
88.13619075870001
 48
0.0
 49
0.0
140
0.0
141
0.0
142
0.423757118
143
1.0
 70
  1696
 72
     0
 73
     0
 74
     0
  7

 75
     0
147
0.0179189148
 76
     0
 77
     2
 78
   300
148
-1300.4909072572
149
0.0
100
AcDbLayout
  1
Model
 70
     1
 71
     0
 10
0.0
 20
0.0
 11
420.0
 21
297.0
 12
0.0
 22
0.0
 32
0.0
 14
-10.0
 24
-9.858073511
 34
0.0
 15
10.0
 25
10.0
 35
0.0
146
0.0
 13
0.0
 23
0.0
 33
0.0
 16
1.0
 26
0.0
 36
0.0
 17
0.0
 27
1.0
 37
0.0
 76
     0
330
1F
331
29
  0
MATERIAL
  5
B4
102
{ACAD_XDICTIONARY
360
B5
102
}
102
{ACAD_REACTORS
330
AB
102
}
330
AB
100
AcDbMaterial
  1
ByBlock
 72
     0
 43
0.0008202099737533
 43
0.0
 43
0.0
 43
0.0
 43
0.0
 43
0.0008202099737533
 43
0.0
 43
0.0
 43
0.0
 43
0.0
 43
1.0
 43
0.0
 43
0.0
 43
0.0
 43
0.0
 43
1.0
 77
     0
 47
0.0008202099737533
 47
0.0
 47
0.0
 47
0.0
 47
0.0
 47
0.0008202099737533
 47
0.0
 47
0.0
 47
0.0
 47
0.0
 47
1.0
 47
0.0
 47
0.0
 47
0.0
 47
0.0
 47
1.0
171
     0
 49
0.0008202099737533
 49
0.0
 49
0.0
 49
0.0
 49
0.0
 49
0.0008202099737533
 49
0.0
 49
0.0
 49
0.0
 49
0.0
 49
1.0
 49
0.0
 49
0.0
 49
0.0
 49
0.0
 49
1.0
175
     0
142
0.0008202099737533
142
0.0
142
0.0
142
0.0
142
0.0
142
0.0008202099737533
142
0.0
142
0.0
142
0.0
142
0.0
142
1.0
142
0.0
142
0.0
142
0.0
142
0.0
142
1.0
179
     0
144
0.0008202099737533
144
0.0
144
0.0
144
0.0
144
0.0
144
0.0008202099737533
144
0.0
144
0.0
144
0.0
144
0.0
144
1.0
144
0.0
144
0.0
144
0.0
144
0.0
144
1.0
147
0.0008202099737533
147
0.0
147
0.0
147
0.0
147
0.0
147
0.0008202099737533
147
0.0
147
0.0
147
0.0
147
0.0
147
1.0
147
0.0
147
0.0
147
0.0
147
0.0
147
1.0
  0
MATERIAL
  5
AC
102
{ACAD_XDICTIONARY
360
AD
102
}
102
{ACAD_REACTORS
330
AB
102
}
330
AB
100
AcDbMaterial
  1
ByLayer
 72
     0
 43
0.0008202099737533
 43
0.0
 43
0.0
 43
0.0
 43
0.0
 43
0.0008202099737533
 43
0.0
 43
0.0
 43
0.0
 43
0.0
 43
1.0
 43
0.0
 43
0.0
 43
0.0
 43
0.0
 43
1.0
 77
     0
 47
0.0008202099737533
 47
0.0
 47
0.0
 47
0.0
 47
0.0
 47
0.0008202099737533
 47
0.0
 47
0.0
 47
0.0
 47
0.0
 47
1.0
 47
0.0
 47
0.0
 47
0.0
 47
0.0
 47
1.0
171
     0
 49
0.0008202099737533
 49
0.0
 49
0.0
 49
0.0
 49
0.0
 49
0.0008202099737533
 49
0.0
 49
0.0
 49
0.0
 49
0.0
 49
1.0
 49
0.0
 49
0.0
 49
0.0
 49
0.0
 49
1.0
175
     0
142
0.0008202099737533
142
0.0
142
0.0
142
0.0
142
0.0
142
0.0008202099737533
142
0.0
142
0.0
142
0.0
142
0.0
142
1.0
142
0.0
142
0.0
142
0.0
142
0.0
142
1.0
179
     0
144
0.0008202099737533
144
0.0
144
0.0
144
0.0
144
0.0
144
0.0008202099737533
144
0.0
144
0.0
144
0.0
144
0.0
144
1.0
144
0.0
144
0.0
144
0.0
144
0.0
144
1.0
147
0.0008202099737533
147
0.0
147
0.0
147
0.0
147
0.0
147
0.0008202099737533
147
0.0
147
0.0
147
0.0
147
0.0
147
1.0
147
0.0
147
0.0
147
0.0
147
0.0
147
1.0
  0
MATERIAL
  5
BC
102
{ACAD_XDICTIONARY
360
BD
102
}
102
{ACAD_REACTORS
330
AB
102
}
330
AB
100
AcDbMaterial
  1
Global
 72
     0
 43
0.0008202099737533
 43
0.0
 43
0.0
 43
0.0
 43
0.0
 43
0.0008202099737533
 43
0.0
 43
0.0
 43
0.0
 43
0.0
 43
1.0
 43
0.0
 43
0.0
 43
0.0
 43
0.0
 43
1.0
 77
     0
 47
0.0008202099737533
 47
0.0
 47
0.0
 47
0.0
 47
0.0
 47
0.0008202099737533
 47
0.0
 47
0.0
 47
0.0
 47
0.0
 47
1.0
 47
0.0
 47
0.0
 47
0.0
 47
0.0
 47
1.0
171
     0
 49
0.0008202099737533
 49
0.0
 49
0.0
 49
0.0
 49
0.0
 49
0.0008202099737533
 49
0.0
 49
0.0
 49
0.0
 49
0.0
 49
1.0
 49
0.0
 49
0.0
 49
0.0
 49
0.0
 49
1.0
175
     0
142
0.0008202099737533
142
0.0
142
0.0
142
0.0
142
0.0
142
0.0008202099737533
142
0.0
142
0.0
142
0.0
142
0.0
142
1.0
142
0.0
142
0.0
142
0.0
142
0.0
142
1.0
179
     0
144
0.0008202099737533
144
0.0
144
0.0
144
0.0
144
0.0
144
0.0008202099737533
144
0.0
144
0.0
144
0.0
144
0.0
144
1.0
144
0.0
144
0.0
144
0.0
144
0.0
144
1.0
147
0.0008202099737533
147
0.0
147
0.0
147
0.0
147
0.0
147
0.0008202099737533
147
0.0
147
0.0
147
0.0
147
0.0
147
1.0
147
0.0
147
0.0
147
0.0
147
0.0
147
1.0
  0
MLEADERSTYLE
  5
E1
102
{ACAD_REACTORS
330
E0
102
}
330
E0
100
AcDbMLeaderStyle
179
     2
170
     2
171
     1
172
     0
 90
        2
 40
0.0
 41
0.0
173
     1
 91
-1056964608
340
14
 92
       -2
290
     1
 42
2.0
291
     1
 43
0.36
  3
Standard
 44
4.0
300

342
11
174
     1
178
     6
175
     1
176
     0
 93
-1056964608
 45
4.0
292
     0
297
     0
 46
4.0
 94
-1056964608
 47
1.0
 49
1.0
140
1.0
293
     1
141
0.0
294
     1
177
     0
142
1.0
295
     0
296
     0
143
0.125
271
     0
272
     9
273
     9
298
     0
  0
MLINESTYLE
  5
18
102
{ACAD_REACTORS
330
17
102
}
330
17
100
AcDbMlineStyle
  2
STANDARD
 70
     0
  3

 62
   256
 51
90.0
 52
90.0
 71
     2
 49
0.5
 62
   256
  6
BYLAYER
 49
-0.5
 62
   256
  6
BYLAYER
  0
ACDBPLACEHOLDER
  5
F
102
{ACAD_REACTORS
330
E
102
}
330
E
  0
SCALE
  5
48
102
{ACAD_REACTORS
330
47
102
}
330
47
100
AcDbScale
 70
     0
300
1:1
140
1.0
141
1.0
290
     1
  0
SCALE
  5
49
102
{ACAD_REACTORS
330
47
102
}
330
47
100
AcDbScale
 70
     0
300
1:2
140
1.0
141
2.0
290
     0
  0
SCALE
  5
4A
102
{ACAD_REACTORS
330
47
102
}
330
47
100
AcDbScale
 70
     0
300
1:4
140
1.0
141
4.0
290
     0
  0
SCALE
  5
4B
102
{ACAD_REACTORS
330
47
102
}
330
47
100
AcDbScale
 70
     0
300
1:5
140
1.0
141
5.0
290
     0
  0
SCALE
  5
4C
102
{ACAD_REACTORS
330
47
102
}
330
47
100
AcDbScale
 70
     0
300
1:8
140
1.0
141
8.0
290
     0
  0
SCALE
  5
4D
102
{ACAD_REACTORS
330
47
102
}
330
47
100
AcDbScale
 70
     0
300
1:10
140
1.0
141
10.0
290
     0
  0
SCALE
  5
4E
102
{ACAD_REACTORS
330
47
102
}
330
47
100
AcDbScale
 70
     0
300
1:16
140
1.0
141
16.0
290
     0
  0
SCALE
  5
4F
102
{ACAD_REACTORS
330
47
102
}
330
47
100
AcDbScale
 70
     0
300
1:20
140
1.0
141
20.0
290
     0
  0
SCALE
  5
50
102
{ACAD_REACTORS
330
47
102
}
330
47
100
AcDbScale
 70
     0
300
1:30
140
1.0
141
30.0
290
     0
  0
SCALE
  5
51
102
{ACAD_REACTORS
330
47
102
}
330
47
100
AcDbScale
 70
     0
300
1:40
140
1.0
141
40.0
290
     0
  0
SCALE
  5
52
102
{ACAD_REACTORS
330
47
102
}
330
47
100
AcDbScale
 70
     0
300
1:50
140
1.0
141
50.0
290
     0
  0
SCALE
  5
53
102
{ACAD_REACTORS
330
47
102
}
330
47
100
AcDbScale
 70
     0
300
1:100
140
1.0
141
100.0
290
     0
  0
SCALE
  5
54
102
{ACAD_REACTORS
330
47
102
}
330
47
100
AcDbScale
 70
     0
300
2:1
140
2.0
141
1.0
290
     0
  0
SCALE
  5
55
102
{ACAD_REACTORS
330
47
102
}
330
47
100
AcDbScale
 70
     0
300
4:1
140
4.0
141
1.0
290
     0
  0
SCALE
  5
56
102
{ACAD_REACTORS
330
47
102
}
330
47
100
AcDbScale
 70
     0
300
8:1
140
8.0
141
1.0
290
     0
  0
SCALE
  5
57
102
{ACAD_REACTORS
330
47
102
}
330
47
100
AcDbScale
 70
     0
300
10:1
140
10.0
141
1.0
290
     0
  0
SCALE
  5
58
102
{ACAD_REACTORS
330
47
102
}
330
47
100
AcDbScale
 70
     0
300
100:1
140
100.0
141
1.0
290
     0
  0
SCALE
  5
59
102
{ACAD_REACTORS
330
47
102
}
330
47
100
AcDbScale
 70
     0
300
1/128" = 1'-0"
140
0.0078125
141
12.0
290
     0
  0
SCALE
  5
5A
102
{ACAD_REACTORS
330
47
102
}
330
47
100
AcDbScale
 70
     0
300
1/64" = 1'-0"
140
0.015625
141
12.0
290
     0
  0
SCALE
  5
5B
102
{ACAD_REACTORS
330
47
102
}
330
47
100
AcDbScale
 70
     0
300
1/32" = 1'-0"
140
0.03125
141
12.0
290
     0
  0
SCALE
  5
5C
102
{ACAD_REACTORS
330
47
102
}
330
47
100
AcDbScale
 70
     0
300
1/16" = 1'-0"
140
0.0625
141
12.0
290
     0
  0
SCALE
  5
5D
102
{ACAD_REACTORS
330
47
102
}
330
47
100
AcDbScale
 70
     0
300
3/32" = 1'-0"
140
0.09375
141
12.0
290
     0
  0
SCALE
  5
5E
102
{ACAD_REACTORS
330
47
102
}
330
47
100
AcDbScale
 70
     0
300
1/8" = 1'-0"
140
0.125
141
12.0
290
     0
  0
SCALE
  5
5F
102
{ACAD_REACTORS
330
47
102
}
330
47
100
AcDbScale
 70
     0
300
3/16" = 1'-0"
140
0.1875
141
12.0
290
     0
  0
SCALE
  5
60
102
{ACAD_REACTORS
330
47
102
}
330
47
100
AcDbScale
 70
     0
300
1/4" = 1'-0"
140
0.25
141
12.0
290
     0
  0
SCALE
  5
61
102
{ACAD_REACTORS
330
47
102
}
330
47
100
AcDbScale
 70
     0
300
3/8" = 1'-0"
140
0.375
141
12.0
290
     0
  0
SCALE
  5
62
102
{ACAD_REACTORS
330
47
102
}
330
47
100
AcDbScale
 70
     0
300
1/2" = 1'-0"
140
0.5
141
12.0
290
     0
  0
SCALE
  5
63
102
{ACAD_REACTORS
330
47
102
}
330
47
100
AcDbScale
 70
     0
300
3/4" = 1'-0"
140
0.75
141
12.0
290
     0
  0
SCALE
  5
64
102
{ACAD_REACTORS
330
47
102
}
330
47
100
AcDbScale
 70
     0
300
1" = 1'-0"
140
1.0
141
12.0
290
     0
  0
SCALE
  5
65
102
{ACAD_REACTORS
330
47
102
}
330
47
100
AcDbScale
 70
     0
300
1-1/2" = 1'-0"
140
1.5
141
12.0
290
     0
  0
SCALE
  5
66
102
{ACAD_REACTORS
330
47
102
}
330
47
100
AcDbScale
 70
     0
300
3" = 1'-0"
140
3.0
141
12.0
290
     0
  0
SCALE
  5
67
102
{ACAD_REACTORS
330
47
102
}
330
47
100
AcDbScale
 70
     0
300
6" = 1'-0"
140
6.0
141
12.0
290
     0
  0
SCALE
  5
68
102
{ACAD_REACTORS
330
47
102
}
330
47
100
AcDbScale
 70
     0
300
1'-0" = 1'-0"
140
12.0
141
12.0
290
     0
  0
ACDBSECTIONVIEWSTYLE
  5
E3
102
{ACAD_XDICTIONARY
360
235
102
}
102
{ACAD_REACTORS
330
E2
102
}
330
E2
100
AcDbModelDocViewStyle
 70
     0
  3
Metric50
290
     0
100
AcDbSectionViewStyle
 70
     0
 71
     0
 90
      102
 71
     1
340
11
 62
   256
 40
5.0
340
0
340
0
 62
   256
 40
5.0
300
I, O, Q, S, X, Z
 40
10.0
 90
        0
 40
2.5
 90
        0
 71
     2
340
16
 90
       25
 62
   256
340
16
 90
       50
 62
   256
 40
5.0
 40
2.5
 40
5.0
 71
     3
340
11
 62
   256
 40
5.0
 90
        0
 40
15.0
 90
        1
300
%<\AcVar ViewSectionStartId>%-%<\AcVar ViewSectionEndId>% (%<\AcVar ViewScale \f "%sn">%)
 71
     4
 62
   256
 62
   257
300
ANSI31
 40
1.0
 90
        0
290
     0
290
     0
 90
        6
 40
0.0
 40
1.570796326794896
 40
0.2617993877991494
 40
1.308996938995747
 40
-0.2617993877991494
 40
1.832595714594046
  0
TABLESTYLE
  5
DF
102
{ACAD_XDICTIONARY
360
233
102
}
102
{ACAD_REACTORS
330
DE
102
}
330
DE
100
AcDbTableStyle
280
     0
  3
Standard
 70
     0
 71
     0
 40
1.5
 41
1.5
280
     0
281
     0
  7
Standard
140
4.5
170
     2
 62
     0
 63
     7
283
     0
 90
      512
 91
        0
  1

274
    -2
284
     1
 64
     0
275
    -2
285
     1
 65
     0
276
    -2
286
     1
 66
     0
277
    -2
287
     1
 67
     0
278
    -2
288
     1
 68
     0
279
    -2
289
     1
 69
     0
  7
Standard
140
6.0
170
     5
 62
     0
 63
     7
283
     0
 90
      512
 91
        0
  1

274
    -2
284
     1
 64
     0
275
    -2
285
     1
 65
     0
276
    -2
286
     1
 66
     0
277
    -2
287
     1
 67
     0
278
    -2
288
     1
 68
     0
279
    -2
289
     1
 69
     0
  7
Standard
140
4.5
170
     5
 62
     0
 63
     7
283
     0
 90
      512
 91
        0
  1

274
    -2
284
     1
 64
     0
275
    -2
285
     1
 65
     0
276
    -2
286
     1
 66
     0
277
    -2
287
     1
 67
     0
278
    -2
288
     1
 68
     0
279
    -2
289
     1
 69
     0
  0
VISUALSTYLE
  5
CA
102
{ACAD_REACTORS
330
C4
102
}
330
C4
100
AcDbVisualStyle
  2
2dWireframe
 70
     4
177
     3
291
     0
 70
    58
 90
        0
176
     1
 90
        2
176
     1
 90
        0
176
     1
 90
        0
176
     1
 40
0.6
176
     1
 40
30.0
176
     1
 62
     7
420
 16777215
176
     1
 90
        1
176
     1
 90
        4
176
     1
 62
     7
176
     1
 62
   257
176
     1
 90
        1
176
     1
 90
        1
176
     1
 40
1.0
176
     1
 90
        0
176
     1
 62
   257
176
     1
 40
1.0
176
     1
 90
        1
176
     1
 90
        6
176
     1
 90
        2
176
     1
 62
     7
176
     1
 90
        5
176
     1
 90
        0
176
     1
 90
        0
176
     1
290
     0
176
     1
 90
        1
176
     1
 40
0.0
176
     1
 90
        0
176
     1
290
     1
176
     1
290
     1
176
     1
290
     0
176
     1
290
     0
176
     1
290
     0
176
     1
290
     0
176
     1
290
     0
176
     1
290
     0
176
     1
290
     0
176
     1
 90
       50
176
     1
 40
0.0
176
     1
 40
1.0
176
     1
 90
        0
176
     1
 62
    18
420
        0
176
     1
 90
       50
176
     1
 90
        3
176
     1
 62
     5
420
      255
176
     1
290
     0
176
     1
 90
       50
176
     1
 90
       50
176
     1
 90
       50
176
     1
290
     0
176
     1
 90
       50
176
     1
 62
   256
176
     0
 40
1.0
176
     0
 90
        2
176
     1
  1
strokes_ogs.tif
176
     1
290
     0
176
     1
 40
1.0
176
     1
 40
1.0
176
     1
  0
VISUALSTYLE
  5
C9
102
{ACAD_REACTORS
330
C4
102
}
330
C4
100
AcDbVisualStyle
  2
Basic
 70
     7
177
     3
291
     1
 70
    58
 90
        1
176
     1
 90
        0
176
     1
 90
        1
176
     1
 90
        0
176
     1
 40
0.6
176
     1
 40
30.0
176
     1
 62
     7
420
 16777215
176
     1
 90
        0
176
     1
 90
        4
176
     1
 62
     7
176
     1
 62
   257
176
     1
 90
        1
176
     1
 90
        1
176
     1
 40
1.0
176
     1
 90
        8
176
     1
 62
     7
176
     1
 40
1.0
176
     1
 90
        1
176
     1
 90
        6
176
     1
 90
        2
176
     1
 62
     7
176
     1
 90
        5
176
     1
 90
        0
176
     1
 90
        0
176
     1
290
     0
176
     1
 90
        1
176
     1
 40
0.0
176
     1
 90
        0
176
     1
290
     0
176
     1
290
     1
176
     1
290
     1
176
     1
290
     0
176
     1
290
     0
176
     1
290
     0
176
     1
290
     0
176
     1
290
     0
176
     1
290
     0
176
     1
 90
       50
176
     1
 40
0.0
176
     1
 40
1.0
176
     1
 90
        0
176
     1
 62
    18
420
        0
176
     1
 90
       50
176
     1
 90
        3
176
     1
 62
     5
420
      255
176
     1
290
     0
176
     1
 90
       50
176
     1
 90
       50
176
     1
 90
       50
176
     1
290
     0
176
     1
 90
       50
176
     1
 62
   256
176
     0
 40
1.0
176
     0
 90
        2
176
     1
  1
strokes_ogs.tif
176
     1
290
     0
176
     1
 40
1.0
176
     1
 40
1.0
176
     1
  0
VISUALSTYLE
  5
D0
102
{ACAD_REACTORS
330
C4
102
}
330
C4
100
AcDbVisualStyle
  2
Brighten
 70
    12
177
     3
291
     1
 70
    58
 90
        2
176
     1
 90
        2
176
     1
 90
        0
176
     1
 90
        0
176
     1
 40
0.6
176
     1
 40
30.0
176
     1
 62
     7
420
 16777215
176
     1
 90
        1
176
     1
 90
        4
176
     1
 62
     7
176
     1
 62
   257
176
     1
 90
        1
176
     1
 90
        1
176
     1
 40
1.0
176
     1
 90
        8
176
     1
 62
     7
176
     1
 40
1.0
176
     1
 90
        1
176
     1
 90
        6
176
     1
 90
        2
176
     1
 62
     7
176
     1
 90
        5
176
     1
 90
        0
176
     1
 90
        0
176
     1
290
     0
176
     1
 90
        1
176
     1
 40
50.0
176
     1
 90
        0
176
     1
290
     0
176
     1
290
     1
176
     1
290
     1
176
     1
290
     0
176
     1
290
     0
176
     1
290
     0
176
     1
290
     0
176
     1
290
     0
176
     1
290
     0
176
     1
 90
       50
176
     1
 40
0.0
176
     1
 40
1.0
176
     1
 90
        0
176
     1
 62
    18
420
        0
176
     1
 90
       50
176
     1
 90
        3
176
     1
 62
     5
420
      255
176
     1
290
     0
176
     1
 90
       50
176
     1
 90
       50
176
     1
 90
       50
176
     1
290
     0
176
     1
 90
       50
176
     1
 62
   256
176
     0
 40
1.0
176
     0
 90
        2
176
     1
  1
strokes_ogs.tif
176
     1
290
     0
176
     1
 40
1.0
176
     1
 40
1.0
176
     1
  0
VISUALSTYLE
  5
D4
102
{ACAD_REACTORS
330
C4
102
}
330
C4
100
AcDbVisualStyle
  2
ColorChange
 70
    16
177
     3
291
     1
 70
    58
 90
        2
176
     1
 90
        2
176
     1
 90
        3
176
     1
 90
        0
176
     1
 40
0.6
176
     1
 40
30.0
176
     1
 62
     8
420
  8421504
176
     1
 90
        1
176
     1
 90
        4
176
     1
 62
     7
176
     1
 62
   257
176
     1
 90
        1
176
     1
 90
        1
176
     1
 40
1.0
176
     1
 90
        8
176
     1
 62
     8
420
  8421504
176
     1
 40
1.0
176
     1
 90
        1
176
     1
 90
        6
176
     1
 90
        2
176
     1
 62
     7
176
     1
 90
        5
176
     1
 90
        0
176
     1
 90
        0
176
     1
290
     0
176
     1
 90
        1
176
     1
 40
0.0
176
     1
 90
        0
176
     1
290
     0
176
     1
290
     1
176
     1
290
     1
176
     1
290
     0
176
     1
290
     0
176
     1
290
     0
176
     1
290
     0
176
     1
290
     0
176
     1
290
     0
176
     1
 90
       50
176
     1
 40
0.0
176
     1
 40
1.0
176
     1
 90
        0
176
     1
 62
    18
420
        0
176
     1
 90
       50
176
     1
 90
        3
176
     1
 62
     5
420
      255
176
     1
290
     0
176
     1
 90
       50
176
     1
 90
       50
176
     1
 90
       50
176
     1
290
     0
176
     1
 90
       50
176
     1
 62
   256
176
     0
 40
1.0
176
     0
 90
        2
176
     1
  1
strokes_ogs.tif
176
     1
290
     0
176
     1
 40
1.0
176
     1
 40
1.0
176
     1
  0
VISUALSTYLE
  5
CD
102
{ACAD_REACTORS
330
C4
102
}
330
C4
100
AcDbVisualStyle
  2
Conceptual
 70
     9
177
     3
291
     0
 70
    58
 90
        3
176
     1
 90
        2
176
     1
 90
        0
176
     1
 90
        0
176
     1
 40
0.6
176
     1
 40
30.0
176
     1
 62
     7
420
 16777215
176
     1
 90
        2
176
     1
 90
        2
176
     1
 62
     7
176
     1
 62
   257
176
     1
 90
        1
176
     1
 90
        1
176
     1
 40
179.0
176
     1
 90
        8
176
     1
 62
     7
176
     1
 40
1.0
176
     1
 90
        1
176
     1
 90
        6
176
     1
 90
        2
176
     1
 62
     7
176
     1
 90
        3
176
     1
 90
        0
176
     1
 90
        0
176
     1
290
     0
176
     1
 90
        1
176
     1
 40
0.0
176
     1
 90
        0
176
     1
290
     0
176
     1
290
     1
176
     1
290
     1
176
     1
290
     0
176
     1
290
     0
176
     1
290
     0
176
     1
290
     0
176
     1
290
     0
176
     1
290
     0
176
     1
 90
       50
176
     1
 40
0.0
176
     1
 40
1.0
176
     1
 90
        0
176
     1
 62
    18
420
        0
176
     1
 90
       50
176
     1
 90
        3
176
     1
 62
     5
420
      255
176
     1
290
     0
176
     1
 90
       50
176
     1
 90
       50
176
     1
 90
       50
176
     1
290
     0
176
     1
 90
       50
176
     1
 62
   256
176
     0
 40
1.0
176
     0
 90
        2
176
     1
  1
strokes_ogs.tif
176
     1
290
     0
176
     1
 40
1.0
176
     1
 40
1.0
176
     1
  0
VISUALSTYLE
  5
CF
102
{ACAD_REACTORS
330
C4
102
}
330
C4
100
AcDbVisualStyle
  2
Dim
 70
    11
177
     3
291
     1
 70
    58
 90
        2
176
     1
 90
        2
176
     1
 90
        0
176
     1
 90
        0
176
     1
 40
0.6
176
     1
 40
30.0
176
     1
 62
     7
420
 16777215
176
     1
 90
        1
176
     1
 90
        4
176
     1
 62
     7
176
     1
 62
   257
176
     1
 90
        1
176
     1
 90
        1
176
     1
 40
1.0
176
     1
 90
        8
176
     1
 62
     7
176
     1
 40
1.0
176
     1
 90
        1
176
     1
 90
        6
176
     1
 90
        2
176
     1
 62
     7
176
     1
 90
        5
176
     1
 90
        0
176
     1
 90
        0
176
     1
290
     0
176
     1
 90
        1
176
     1
 40
-50.0
176
     1
 90
        0
176
     1
290
     0
176
     1
290
     1
176
     1
290
     1
176
     1
290
     0
176
     1
290
     0
176
     1
290
     0
176
     1
290
     0
176
     1
290
     0
176
     1
290
     0
176
     1
 90
       50
176
     1
 40
0.0
176
     1
 40
1.0
176
     1
 90
        0
176
     1
 62
    18
420
        0
176
     1
 90
       50
176
     1
 90
        3
176
     1
 62
     5
420
      255
176
     1
290
     0
176
     1
 90
       50
176
     1
 90
       50
176
     1
 90
       50
176
     1
290
     0
176
     1
 90
       50
176
     1
 62
   256
176
     0
 40
1.0
176
     0
 90
        2
176
     1
  1
strokes_ogs.tif
176
     1
290
     0
176
     1
 40
1.0
176
     1
 40
1.0
176
     1
  0
VISUALSTYLE
  5
DC
102
{ACAD_REACTORS
330
C4
102
}
330
C4
100
AcDbVisualStyle
  2
EdgeColorOff
 70
    22
177
     3
291
     1
 70
    58
 90
        2
176
     0
 90
        2
176
     0
 90
        0
176
     0
 90
        0
176
     0
 40
0.6
176
     0
 40
30.0
176
     0
 62
     7
420
 16777215
176
     0
 90
        1
176
     0
 90
        4
176
     0
 62
     7
176
     0
 62
   257
176
     0
 90
        1
176
     0
 90
        1
176
     0
 40
1.0
176
     0
 90
        8
176
     2
 62
     7
176
     0
 40
1.0
176
     0
 90
        1
176
     0
 90
        6
176
     0
 90
        2
176
     0
 62
     7
176
     0
 90
        5
176
     0
 90
        0
176
     0
 90
        0
176
     0
290
     0
176
     0
 90
        1
176
     0
 40
0.0
176
     0
 90
        0
176
     0
290
     0
176
     1
290
     1
176
     1
290
     1
176
     1
290
     0
176
     1
290
     0
176
     1
290
     0
176
     1
290
     0
176
     1
290
     0
176
     1
290
     0
176
     1
 90
       50
176
     0
 40
0.0
176
     0
 40
1.0
176
     0
 90
        0
176
     0
 62
    18
420
        0
176
     0
 90
       50
176
     0
 90
        3
176
     0
 62
     5
420
      255
176
     0
290
     0
176
     1
 90
       50
176
     0
 90
       50
176
     0
 90
       50
176
     0
290
     0
176
     1
 90
       50
176
     0
 62
   256
176
     0
 40
1.0
176
     0
 90
        2
176
     0
  1
strokes_ogs.tif
176
     0
290
     0
176
     1
 40
1.0
176
     0
 40
1.0
176
     0
  0
VISUALSTYLE
  5
D3
102
{ACAD_REACTORS
330
C4
102
}
330
C4
100
AcDbVisualStyle
  2
Facepattern
 70
    15
177
     3
291
     1
 70
    58
 90
        2
176
     1
 90
        2
176
     1
 90
        0
176
     1
 90
        0
176
     1
 40
0.6
176
     1
 40
30.0
176
     1
 62
     7
420
 16777215
176
     1
 90
        1
176
     1
 90
        4
176
     1
 62
     7
176
     1
 62
   257
176
     1
 90
        1
176
     1
 90
        1
176
     1
 40
1.0
176
     1
 90
        8
176
     1
 62
     7
176
     1
 40
1.0
176
     1
 90
        1
176
     1
 90
        6
176
     1
 90
        2
176
     1
 62
     7
176
     1
 90
        5
176
     1
 90
        0
176
     1
 90
        0
176
     1
290
     0
176
     1
 90
        1
176
     1
 40
0.0
176
     1
 90
        0
176
     1
290
     0
176
     1
290
     1
176
     1
290
     1
176
     1
290
     0
176
     1
290
     0
176
     1
290
     0
176
     1
290
     0
176
     1
290
     0
176
     1
290
     0
176
     1
 90
       50
176
     1
 40
0.0
176
     1
 40
1.0
176
     1
 90
        0
176
     1
 62
    18
420
        0
176
     1
 90
       50
176
     1
 90
        3
176
     1
 62
     5
420
      255
176
     1
290
     0
176
     1
 90
       50
176
     1
 90
       50
176
     1
 90
       50
176
     1
290
     0
176
     1
 90
       50
176
     1
 62
   256
176
     0
 40
1.0
176
     0
 90
        2
176
     1
  1
strokes_ogs.tif
176
     1
290
     0
176
     1
 40
1.0
176
     1
 40
1.0
176
     1
  0
VISUALSTYLE
  5
C5
102
{ACAD_REACTORS
330
C4
102
}
330
C4
100
AcDbVisualStyle
  2
Flat
 70
     0
177
     3
291
     1
 70
    58
 90
        2
176
     1
 90
        1
176
     1
 90
        1
176
     1
 90
        2
176
     1
 40
0.6
176
     1
 40
30.0
176
     1
 62
     7
420
 16777215
176
     1
 90
        0
176
     1
 90
        0
176
     1
 62
     7
176
     1
 62
   257
176
     1
 90
        1
176
     1
 90
        1
176
     1
 40
1.0
176
     1
 90
        8
176
     1
 62
     7
176
     1
 40
1.0
176
     1
 90
        1
176
     1
 90
        6
176
     1
 90
        2
176
     1
 62
     7
176
     1
 90
        5
176
     1
 90
        0
176
     1
 90
        0
176
     1
290
     0
176
     1
 90
       13
176
     1
 40
0.0
176
     1
 90
        0
176
     1
290
     0
176
     1
290
     1
176
     1
290
     1
176
     1
290
     0
176
     1
290
     0
176
     1
290
     0
176
     1
290
     0
176
     1
290
     0
176
     1
290
     0
176
     1
 90
       50
176
     1
 40
0.0
176
     1
 40
1.0
176
     1
 90
        0
176
     1
 62
    18
420
        0
176
     1
 90
       50
176
     1
 90
        3
176
     1
 62
     5
420
      255
176
     1
290
     0
176
     1
 90
       50
176
     1
 90
       50
176
     1
 90
       50
176
     1
290
     0
176
     1
 90
       50
176
     1
 62
   256
176
     0
 40
1.0
176
     0
 90
        2
176
     1
  1
strokes_ogs.tif
176
     1
290
     0
176
     1
 40
1.0
176
     1
 40
1.0
176
     1
  0
VISUALSTYLE
  5
C6
102
{ACAD_REACTORS
330
C4
102
}
330
C4
100
AcDbVisualStyle
  2
FlatWithEdges
 70
     1
177
     3
291
     1
 70
    58
 90
        2
176
     1
 90
        1
176
     1
 90
        1
176
     1
 90
        2
176
     1
 40
0.6
176
     1
 40
30.0
176
     1
 62
     7
420
 16777215
176
     1
 90
        1
176
     1
 90
        0
176
     1
 62
     7
176
     1
 62
   257
176
     1
 90
        1
176
     1
 90
        1
176
     1
 40
1.0
176
     1
 90
        0
176
     1
 62
   257
176
     1
 40
1.0
176
     1
 90
        1
176
     1
 90
        6
176
     1
 90
        2
176
     1
 62
     7
176
     1
 90
        5
176
     1
 90
        0
176
     1
 90
        0
176
     1
290
     0
176
     1
 90
       13
176
     1
 40
0.0
176
     1
 90
        0
176
     1
290
     0
176
     1
290
     1
176
     1
290
     1
176
     1
290
     0
176
     1
290
     0
176
     1
290
     0
176
     1
290
     0
176
     1
290
     0
176
     1
290
     0
176
     1
 90
       50
176
     1
 40
0.0
176
     1
 40
1.0
176
     1
 90
        0
176
     1
 62
    18
420
        0
176
     1
 90
       50
176
     1
 90
        3
176
     1
 62
     5
420
      255
176
     1
290
     0
176
     1
 90
       50
176
     1
 90
       50
176
     1
 90
       50
176
     1
290
     0
176
     1
 90
       50
176
     1
 62
   256
176
     0
 40
1.0
176
     0
 90
        2
176
     1
  1
strokes_ogs.tif
176
     1
290
     0
176
     1
 40
1.0
176
     1
 40
1.0
176
     1
  0
VISUALSTYLE
  5
C7
102
{ACAD_REACTORS
330
C4
102
}
330
C4
100
AcDbVisualStyle
  2
Gouraud
 70
     2
177
     3
291
     1
 70
    58
 90
        2
176
     1
 90
        2
176
     1
 90
        1
176
     1
 90
        2
176
     1
 40
0.6
176
     1
 40
30.0
176
     1
 62
     7
420
 16777215
176
     1
 90
        0
176
     1
 90
        0
176
     1
 62
     7
176
     1
 62
   257
176
     1
 90
        1
176
     1
 90
        1
176
     1
 40
1.0
176
     1
 90
        0
176
     1
 62
     7
176
     1
 40
1.0
176
     1
 90
        1
176
     1
 90
        6
176
     1
 90
        2
176
     1
 62
     7
176
     1
 90
        5
176
     1
 90
        0
176
     1
 90
        0
176
     1
290
     0
176
     1
 90
       13
176
     1
 40
0.0
176
     1
 90
        0
176
     1
290
     0
176
     1
290
     1
176
     1
290
     1
176
     1
290
     0
176
     1
290
     0
176
     1
290
     0
176
     1
290
     0
176
     1
290
     0
176
     1
290
     0
176
     1
 90
       50
176
     1
 40
0.0
176
     1
 40
1.0
176
     1
 90
        0
176
     1
 62
    18
420
        0
176
     1
 90
       50
176
     1
 90
        3
176
     1
 62
     5
420
      255
176
     1
290
     0
176
     1
 90
       50
176
     1
 90
       50
176
     1
 90
       50
176
     1
290
     0
176
     1
 90
       50
176
     1
 62
   256
176
     0
 40
1.0
176
     0
 90
        2
176
     1
  1
strokes_ogs.tif
176
     1
290
     0
176
     1
 40
1.0
176
     1
 40
1.0
176
     1
  0
VISUALSTYLE
  5
C8
102
{ACAD_REACTORS
330
C4
102
}
330
C4
100
AcDbVisualStyle
  2
GouraudWithEdges
 70
     3
177
     3
291
     1
 70
    58
 90
        2
176
     1
 90
        2
176
     1
 90
        1
176
     1
 90
        2
176
     1
 40
0.6
176
     1
 40
30.0
176
     1
 62
     7
420
 16777215
176
     1
 90
        1
176
     1
 90
        0
176
     1
 62
     7
176
     1
 62
   257
176
     1
 90
        1
176
     1
 90
        1
176
     1
 40
1.0
176
     1
 90
        0
176
     1
 62
   257
176
     1
 40
1.0
176
     1
 90
        1
176
     1
 90
        6
176
     1
 90
        2
176
     1
 62
     7
176
     1
 90
        5
176
     1
 90
        0
176
     1
 90
        0
176
     1
290
     0
176
     1
 90
       13
176
     1
 40
0.0
176
     1
 90
        0
176
     1
290
     0
176
     1
290
     1
176
     1
290
     1
176
     1
290
     0
176
     1
290
     0
176
     1
290
     0
176
     1
290
     0
176
     1
290
     0
176
     1
290
     0
176
     1
 90
       50
176
     1
 40
0.0
176
     1
 40
1.0
176
     1
 90
        0
176
     1
 62
    18
420
        0
176
     1
 90
       50
176
     1
 90
        3
176
     1
 62
     5
420
      255
176
     1
290
     0
176
     1
 90
       50
176
     1
 90
       50
176
     1
 90
       50
176
     1
290
     0
176
     1
 90
       50
176
     1
 62
   256
176
     0
 40
1.0
176
     0
 90
        2
176
     1
  1
strokes_ogs.tif
176
     1
290
     0
176
     1
 40
1.0
176
     1
 40
1.0
176
     1
  0
VISUALSTYLE
  5
CC
102
{ACAD_REACTORS
330
C4
102
}
330
C4
100
AcDbVisualStyle
  2
Hidden
 70
     6
177
     3
291
     0
 70
    58
 90
        1
176
     1
 90
        2
176
     1
 90
        2
176
     1
 90
        0
176
     1
 40
0.6
176
     1
 40
30.0
176
     1
 62
     7
420
 16777215
176
     1
 90
        2
176
     1
 90
        2
176
     1
 62
     7
176
     1
 62
   257
176
     1
 90
        2
176
     1
 90
        1
176
     1
 40
40.0
176
     1
 90
        0
176
     1
 62
   257
176
     1
 40
1.0
176
     1
 90
        1
176
     1
 90
        6
176
     1
 90
        2
176
     1
 62
     7
176
     1
 90
        3
176
     1
 90
        0
176
     1
 90
        0
176
     1
290
     0
176
     1
 90
        1
176
     1
 40
0.0
176
     1
 90
        0
176
     1
290
     0
176
     1
290
     1
176
     1
290
     1
176
     1
290
     0
176
     1
290
     0
176
     1
290
     0
176
     1
290
     0
176
     1
290
     0
176
     1
290
     0
176
     1
 90
       50
176
     1
 40
0.0
176
     1
 40
1.0
176
     1
 90
        0
176
     1
 62
    18
420
        0
176
     1
 90
       50
176
     1
 90
        3
176
     1
 62
     5
420
      255
176
     1
290
     0
176
     1
 90
       50
176
     1
 90
       50
176
     1
 90
       50
176
     1
290
     0
176
     1
 90
       50
176
     1
 62
   256
176
     0
 40
1.0
176
     0
 90
        2
176
     1
  1
strokes_ogs.tif
176
     1
290
     0
176
     1
 40
1.0
176
     1
 40
1.0
176
     1
  0
VISUALSTYLE
  5
DA
102
{ACAD_REACTORS
330
C4
102
}
330
C4
100
AcDbVisualStyle
  2
JitterOff
 70
    20
177
     3
291
     1
 70
    58
 90
        2
176
     0
 90
        2
176
     0
 90
        0
176
     0
 90
        0
176
     0
 40
0.6
176
     0
 40
30.0
176
     0
 62
     7
420
 16777215
176
     0
 90
        1
176
     0
 90
        4
176
     0
 62
     7
176
     0
 62
   257
176
     0
 90
        1
176
     0
 90
        1
176
     0
 40
1.0
176
     0
 90
       10
176
     2
 62
     7
176
     0
 40
1.0
176
     0
 90
        1
176
     0
 90
        6
176
     0
 90
        2
176
     0
 62
     7
176
     0
 90
        5
176
     0
 90
        0
176
     0
 90
        0
176
     0
290
     0
176
     0
 90
        1
176
     0
 40
0.0
176
     0
 90
        0
176
     0
290
     0
176
     1
290
     1
176
     1
290
     1
176
     1
290
     0
176
     1
290
     0
176
     1
290
     0
176
     1
290
     0
176
     1
290
     0
176
     1
290
     0
176
     1
 90
       50
176
     0
 40
0.0
176
     0
 40
1.0
176
     0
 90
        0
176
     0
 62
    18
420
        0
176
     0
 90
       50
176
     0
 90
        3
176
     0
 62
     5
420
      255
176
     0
290
     0
176
     1
 90
       50
176
     0
 90
       50
176
     0
 90
       50
176
     0
290
     0
176
     1
 90
       50
176
     0
 62
   256
176
     0
 40
1.0
176
     0
 90
        2
176
     0
  1
strokes_ogs.tif
176
     0
290
     0
176
     1
 40
1.0
176
     0
 40
1.0
176
     0
  0
VISUALSTYLE
  5
D2
102
{ACAD_REACTORS
330
C4
102
}
330
C4
100
AcDbVisualStyle
  2
Linepattern
 70
    14
177
     3
291
     1
 70
    58
 90
        2
176
     1
 90
        2
176
     1
 90
        0
176
     1
 90
        0
176
     1
 40
0.6
176
     1
 40
30.0
176
     1
 62
     7
420
 16777215
176
     1
 90
        1
176
     1
 90
        4
176
     1
 62
     7
176
     1
 62
   257
176
     1
 90
        7
176
     1
 90
        7
176
     1
 40
1.0
176
     1
 90
        8
176
     1
 62
     7
176
     1
 40
1.0
176
     1
 90
        1
176
     1
 90
        6
176
     1
 90
        2
176
     1
 62
     7
176
     1
 90
        5
176
     1
 90
        0
176
     1
 90
        0
176
     1
290
     0
176
     1
 90
        1
176
     1
 40
0.0
176
     1
 90
        0
176
     1
290
     0
176
     1
290
     1
176
     1
290
     1
176
     1
290
     0
176
     1
290
     0
176
     1
290
     0
176
     1
290
     0
176
     1
290
     0
176
     1
290
     0
176
     1
 90
       50
176
     1
 40
0.0
176
     1
 40
1.0
176
     1
 90
        0
176
     1
 62
    18
420
        0
176
     1
 90
       50
176
     1
 90
        3
176
     1
 62
     5
420
      255
176
     1
290
     0
176
     1
 90
       50
176
     1
 90
       50
176
     1
 90
       50
176
     1
290
     0
176
     1
 90
       50
176
     1
 62
   256
176
     0
 40
1.0
176
     0
 90
        2
176
     1
  1
strokes_ogs.tif
176
     1
290
     0
176
     1
 40
1.0
176
     1
 40
1.0
176
     1
  0
VISUALSTYLE
  5
DB
102
{ACAD_REACTORS
330
C4
102
}
330
C4
100
AcDbVisualStyle
  2
OverhangOff
 70
    21
177
     3
291
     1
 70
    58
 90
        2
176
     0
 90
        2
176
     0
 90
        0
176
     0
 90
        0
176
     0
 40
0.6
176
     0
 40
30.0
176
     0
 62
     7
420
 16777215
176
     0
 90
        1
176
     0
 90
        4
176
     0
 62
     7
176
     0
 62
   257
176
     0
 90
        1
176
     0
 90
        1
176
     0
 40
1.0
176
     0
 90
        9
176
     2
 62
     7
176
     0
 40
1.0
176
     0
 90
        1
176
     0
 90
        6
176
     0
 90
        2
176
     0
 62
     7
176
     0
 90
        5
176
     0
 90
        0
176
     0
 90
        0
176
     0
290
     0
176
     0
 90
        1
176
     0
 40
0.0
176
     0
 90
        0
176
     0
290
     0
176
     1
290
     1
176
     1
290
     1
176
     1
290
     0
176
     1
290
     0
176
     1
290
     0
176
     1
290
     0
176
     1
290
     0
176
     1
290
     0
176
     1
 90
       50
176
     0
 40
0.0
176
     0
 40
1.0
176
     0
 90
        0
176
     0
 62
    18
420
        0
176
     0
 90
       50
176
     0
 90
        3
176
     0
 62
     5
420
      255
176
     0
290
     0
176
     1
 90
       50
176
     0
 90
       50
176
     0
 90
       50
176
     0
290
     0
176
     1
 90
       50
176
     0
 62
   256
176
     0
 40
1.0
176
     0
 90
        2
176
     0
  1
strokes_ogs.tif
176
     0
290
     0
176
     1
 40
1.0
176
     0
 40
1.0
176
     0
  0
VISUALSTYLE
  5
CE
102
{ACAD_REACTORS
330
C4
102
}
330
C4
100
AcDbVisualStyle
  2
Realistic
 70
     8
177
     3
291
     0
 70
    58
 90
        2
176
     1
 90
        3
176
     1
 90
        0
176
     1
 90
        2
176
     1
 40
0.6
176
     1
 40
30.0
176
     1
 62
     7
420
 16777215
176
     1
 90
        0
176
     1
 90
        0
176
     1
 62
     7
176
     1
 62
   257
176
     1
 90
        1
176
     1
 90
        1
176
     1
 40
1.0
176
     1
 90
        8
176
     1
 62
   257
176
     1
 40
1.0
176
     1
 90
        1
176
     1
 90
        6
176
     1
 90
        2
176
     1
 62
     7
176
     1
 90
        3
176
     1
 90
        0
176
     1
 90
        0
176
     1
290
     0
176
     1
 90
       13
176
     1
 40
0.0
176
     1
 90
        0
176
     1
290
     0
176
     1
290
     1
176
     1
290
     1
176
     1
290
     0
176
     1
290
     0
176
     1
290
     0
176
     1
290
     0
176
     1
290
     0
176
     1
290
     0
176
     1
 90
       50
176
     1
 40
0.0
176
     1
 40
1.0
176
     1
 90
        0
176
     1
 62
    18
420
        0
176
     1
 90
       50
176
     1
 90
        3
176
     1
 62
     5
420
      255
176
     1
290
     0
176
     1
 90
       50
176
     1
 90
       50
176
     1
 90
       50
176
     1
290
     0
176
     1
 90
       50
176
     1
 62
   256
176
     0
 40
1.0
176
     0
 90
        2
176
     1
  1
strokes_ogs.tif
176
     1
290
     0
176
     1
 40
1.0
176
     1
 40
1.0
176
     1
  0
VISUALSTYLE
  5
D9
102
{ACAD_REACTORS
330
C4
102
}
330
C4
100
AcDbVisualStyle
  2
Shaded
 70
    27
177
     3
291
     0
 70
    58
 90
        2
176
     1
 90
        2
176
     1
 90
        1
176
     1
 90
        2
176
     1
 40
0.6
176
     1
 40
30.0
176
     1
 62
     7
420
 16777215
176
     1
 90
        0
176
     1
 90
        4
176
     1
 62
     7
176
     1
 62
   257
176
     1
 90
        1
176
     1
 90
        1
176
     1
 40
1.0
176
     1
 90
        8
176
     1
 62
   257
176
     1
 40
1.0
176
     1
 90
        1
176
     1
 90
        6
176
     1
 90
        2
176
     1
 62
     8
420
  7895160
176
     1
 90
        3
176
     1
 90
        0
176
     1
 90
        0
176
     1
290
     0
176
     1
 90
        5
176
     1
 40
0.0
176
     1
 90
        0
176
     1
290
     0
176
     1
290
     1
176
     1
290
     1
176
     1
290
     0
176
     1
290
     0
176
     1
290
     0
176
     1
290
     0
176
     1
290
     0
176
     1
290
     0
176
     1
 90
       50
176
     1
 40
0.0
176
     1
 40
1.0
176
     1
 90
        0
176
     1
 62
    18
420
        0
176
     1
 90
       50
176
     1
 90
        3
176
     1
 62
     5
420
      255
176
     1
290
     0
176
     1
 90
       50
176
     1
 90
       50
176
     1
 90
       50
176
     1
290
     0
176
     1
 90
       50
176
     1
 62
   256
176
     0
 40
1.0
176
     0
 90
        2
176
     1
  1
strokes_ogs.tif
176
     1
290
     0
176
     1
 40
1.0
176
     1
 40
1.0
176
     1
  0
VISUALSTYLE
  5
D8
102
{ACAD_REACTORS
330
C4
102
}
330
C4
100
AcDbVisualStyle
  2
Shaded with edges
 70
    26
177
     3
291
     0
 70
    58
 90
        2
176
     1
 90
        2
176
     1
 90
        1
176
     1
 90
        2
176
     1
 40
0.6
176
     1
 40
30.0
176
     1
 62
     7
420
 16777215
176
     1
 90
        1
176
     1
 90
        2
176
     1
 62
     7
176
     1
 62
   257
176
     1
 90
        2
176
     1
 90
        1
176
     1
 40
1.0
176
     1
 90
        8
176
     1
 62
   257
176
     1
 40
1.0
176
     1
 90
        1
176
     1
 90
        6
176
     1
 90
        2
176
     1
 62
     7
176
     1
 90
        3
176
     1
 90
        0
176
     1
 90
        0
176
     1
290
     0
176
     1
 90
        5
176
     1
 40
0.0
176
     1
 90
        0
176
     1
290
     0
176
     1
290
     1
176
     1
290
     1
176
     1
290
     0
176
     1
290
     0
176
     1
290
     0
176
     1
290
     0
176
     1
290
     0
176
     1
290
     0
176
     1
 90
       50
176
     1
 40
0.0
176
     1
 40
1.0
176
     1
 90
        0
176
     1
 62
    18
420
        0
176
     1
 90
       50
176
     1
 90
        3
176
     1
 62
     5
420
      255
176
     1
290
     0
176
     1
 90
       50
176
     1
 90
       50
176
     1
 90
       50
176
     1
290
     0
176
     1
 90
       50
176
     1
 62
   256
176
     0
 40
1.0
176
     0
 90
        2
176
     1
  1
strokes_ogs.tif
176
     1
290
     0
176
     1
 40
1.0
176
     1
 40
1.0
176
     1
  0
VISUALSTYLE
  5
D5
102
{ACAD_REACTORS
330
C4
102
}
330
C4
100
AcDbVisualStyle
  2
Shades of Gray
 70
    23
177
     3
291
     0
 70
    58
 90
        2
176
     1
 90
        2
176
     1
 90
        3
176
     1
 90
        0
176
     1
 40
0.6
176
     1
 40
30.0
176
     1
 62
     7
420
 16777215
176
     1
 90
        2
176
     1
 90
        2
176
     1
 62
     7
176
     1
 62
     7
176
     1
 90
        1
176
     1
 90
        1
176
     1
 40
40.0
176
     1
 90
        8
176
     1
 62
     7
176
     1
 40
1.0
176
     1
 90
        1
176
     1
 90
        6
176
     1
 90
        2
176
     1
 62
     7
176
     1
 90
        3
176
     1
 90
        0
176
     1
 90
        0
176
     1
290
     0
176
     1
 90
        1
176
     1
 40
0.0
176
     1
 90
        0
176
     1
290
     0
176
     1
290
     1
176
     1
290
     1
176
     1
290
     0
176
     1
290
     0
176
     1
290
     0
176
     1
290
     0
176
     1
290
     0
176
     1
290
     0
176
     1
 90
       50
176
     1
 40
0.0
176
     1
 40
1.0
176
     1
 90
        0
176
     1
 62
    18
420
        0
176
     1
 90
       50
176
     1
 90
        3
176
     1
 62
     5
420
      255
176
     1
290
     0
176
     1
 90
       50
176
     1
 90
       50
176
     1
 90
       50
176
     1
290
     0
176
     1
 90
       50
176
     1
 62
   256
176
     0
 40
1.0
176
     0
 90
        2
176
     1
  1
strokes_ogs.tif
176
     1
290
     0
176
     1
 40
1.0
176
     1
 40
1.0
176
     1
  0
VISUALSTYLE
  5
D6
102
{ACAD_REACTORS
330
C4
102
}
330
C4
100
AcDbVisualStyle
  2
Sketchy
 70
    24
177
     3
291
     0
 70
    58
 90
        1
176
     1
 90
        2
176
     1
 90
        2
176
     1
 90
        0
176
     1
 40
0.6
176
     1
 40
30.0
176
     1
 62
     7
420
 16777215
176
     1
 90
        2
176
     1
 90
        2
176
     1
 62
     7
176
     1
 62
     7
176
     1
 90
        1
176
     1
 90
        1
176
     1
 40
40.0
176
     1
 90
       11
176
     1
 62
     7
176
     1
 40
1.0
176
     1
 90
        1
176
     1
 90
        6
176
     1
 90
        2
176
     1
 62
     7
176
     1
 90
        6
176
     1
 90
        0
176
     1
 90
        0
176
     1
290
     0
176
     1
 90
        1
176
     1
 40
0.0
176
     1
 90
        0
176
     1
290
     0
176
     1
290
     1
176
     1
290
     1
176
     1
290
     0
176
     1
290
     0
176
     1
290
     0
176
     1
290
     0
176
     1
290
     0
176
     1
290
     0
176
     1
 90
       50
176
     1
 40
0.0
176
     1
 40
1.0
176
     1
 90
        0
176
     1
 62
    18
420
        0
176
     1
 90
       50
176
     1
 90
        3
176
     1
 62
     5
420
      255
176
     1
290
     0
176
     1
 90
       50
176
     1
 90
       50
176
     1
 90
       50
176
     1
290
     0
176
     1
 90
       50
176
     1
 62
   256
176
     0
 40
1.0
176
     0
 90
        2
176
     1
  1
strokes_ogs.tif
176
     1
290
     0
176
     1
 40
1.0
176
     1
 40
1.0
176
     1
  0
VISUALSTYLE
  5
D1
102
{ACAD_REACTORS
330
C4
102
}
330
C4
100
AcDbVisualStyle
  2
Thicken
 70
    13
177
     3
291
     1
 70
    58
 90
        2
176
     1
 90
        2
176
     1
 90
        0
176
     1
 90
        0
176
     1
 40
0.6
176
     1
 40
30.0
176
     1
 62
     7
420
 16777215
176
     1
 90
        1
176
     1
 90
        4
176
     1
 62
     7
176
     1
 62
   257
176
     1
 90
        1
176
     1
 90
        1
176
     1
 40
1.0
176
     1
 90
       12
176
     1
 62
     7
176
     1
 40
1.0
176
     1
 90
        1
176
     1
 90
        6
176
     1
 90
        2
176
     1
 62
     7
176
     1
 90
        5
176
     1
 90
        0
176
     1
 90
        0
176
     1
290
     0
176
     1
 90
        1
176
     1
 40
0.0
176
     1
 90
        0
176
     1
290
     0
176
     1
290
     1
176
     1
290
     1
176
     1
290
     0
176
     1
290
     0
176
     1
290
     0
176
     1
290
     0
176
     1
290
     0
176
     1
290
     0
176
     1
 90
       50
176
     1
 40
0.0
176
     1
 40
1.0
176
     1
 90
        0
176
     1
 62
    18
420
        0
176
     1
 90
       50
176
     1
 90
        3
176
     1
 62
     5
420
      255
176
     1
290
     0
176
     1
 90
       50
176
     1
 90
       50
176
     1
 90
       50
176
     1
290
     0
176
     1
 90
       50
176
     1
 62
   256
176
     0
 40
1.0
176
     0
 90
        2
176
     1
  1
strokes_ogs.tif
176
     1
290
     0
176
     1
 40
1.0
176
     1
 40
1.0
176
     1
  0
VISUALSTYLE
  5
CB
102
{ACAD_REACTORS
330
C4
102
}
330
C4
100
AcDbVisualStyle
  2
Wireframe
 70
     5
177
     3
291
     0
 70
    58
 90
        0
176
     1
 90
        2
176
     1
 90
        0
176
     1
 90
        0
176
     1
 40
0.6
176
     1
 40
30.0
176
     1
 62
     7
420
 16777215
176
     1
 90
        1
176
     1
 90
        4
176
     1
 62
     7
176
     1
 62
   257
176
     1
 90
        1
176
     1
 90
        1
176
     1
 40
1.0
176
     1
 90
        0
176
     1
 62
   257
176
     1
 40
1.0
176
     1
 90
        1
176
     1
 90
        6
176
     1
 90
        2
176
     1
 62
     7
176
     1
 90
        3
176
     1
 90
        0
176
     1
 90
        0
176
     1
290
     0
176
     1
 90
        1
176
     1
 40
0.0
176
     1
 90
        0
176
     1
290
     0
176
     1
290
     1
176
     1
290
     1
176
     1
290
     0
176
     1
290
     0
176
     1
290
     0
176
     1
290
     0
176
     1
290
     0
176
     1
290
     0
176
     1
 90
       50
176
     1
 40
0.0
176
     1
 40
1.0
176
     1
 90
        0
176
     1
 62
    18
420
        0
176
     1
 90
       50
176
     1
 90
        3
176
     1
 62
     5
420
      255
176
     1
290
     0
176
     1
 90
       50
176
     1
 90
       50
176
     1
 90
       50
176
     1
290
     0
176
     1
 90
       50
176
     1
 62
   256
176
     0
 40
1.0
176
     0
 90
        2
176
     1
  1
strokes_ogs.tif
176
     1
290
     0
176
     1
 40
1.0
176
     1
 40
1.0
176
     1
  0
VISUALSTYLE
  5
D7
102
{ACAD_REACTORS
330
C4
102
}
330
C4
100
AcDbVisualStyle
  2
X-Ray
 70
    25
177
     3
291
     0
 70
    58
 90
        2
176
     1
 90
        2
176
     1
 90
        1
176
     1
 90
        1
176
     1
 40
0.5
176
     1
 40
30.0
176
     1
 62
     7
420
 16777215
176
     1
 90
        1
176
     1
 90
        0
176
     1
 62
     7
176
     1
 62
   257
176
     1
 90
        1
176
     1
 90
        1
176
     1
 40
1.0
176
     1
 90
        8
176
     1
 62
     7
176
     1
 40
1.0
176
     1
 90
        1
176
     1
 90
        6
176
     1
 90
        2
176
     1
 62
     7
176
     1
 90
        3
176
     1
 90
        0
176
     1
 90
        0
176
     1
290
     0
176
     1
 90
       13
176
     1
 40
0.0
176
     1
 90
        0
176
     1
290
     0
176
     1
290
     1
176
     1
290
     1
176
     1
290
     0
176
     1
290
     0
176
     1
290
     0
176
     1
290
     0
176
     1
290
     0
176
     1
290
     0
176
     1
 90
       50
176
     1
 40
0.0
176
     1
 40
1.0
176
     1
 90
        0
176
     1
 62
    18
420
        0
176
     1
 90
       50
176
     1
 90
        3
176
     1
 62
     5
420
      255
176
     1
290
     0
176
     1
 90
       50
176
     1
 90
       50
176
     1
 90
       50
176
     1
290
     0
176
     1
 90
       50
176
     1
 62
   256
176
     0
 40
1.0
176
     0
 90
        2
176
     1
  1
strokes_ogs.tif
176
     1
290
     0
176
     1
 40
1.0
176
     1
 40
1.0
176
     1
  0
DICTIONARYVAR
  5
22E
102
{ACAD_REACTORS
330
228
102
}
330
228
100
DictionaryVariables
280
     0
  1
1:1
  0
DICTIONARYVAR
  5
22A
102
{ACAD_REACTORS
330
228
102
}
330
228
100
DictionaryVariables
280
     0
  1
STANDARD
  0
DICTIONARYVAR
  5
229
102
{ACAD_REACTORS
330
228
102
}
330
228
100
DictionaryVariables
280
     0
  1
STANDARD
  0
DICTIONARYVAR
  5
22B
102
{ACAD_REACTORS
330
228
102
}
330
228
100
DictionaryVariables
280
     0
  1
Metric50
  0
DICTIONARYVAR
  5
22C
102
{ACAD_REACTORS
330
228
102
}
330
228
100
DictionaryVariables
280
     0
  1
Metric50
  0
DICTIONARYVAR
  5
230
102
{ACAD_REACTORS
330
228
102
}
330
228
100
DictionaryVariables
280
     0
  1
1
  0
DICTIONARYVAR
  5
231
102
{ACAD_REACTORS
330
228
102
}
330
228
100
DictionaryVariables
280
     0
  1
15
  0
DICTIONARYVAR
  5
22F
102
{ACAD_REACTORS
330
228
102
}
330
228
100
DictionaryVariables
280
     0
  1
0
  0
DICTIONARYVAR
  5
22D
102
{ACAD_REACTORS
330
228
102
}
330
228
100
DictionaryVariables
280
     0
  1
0
  0
DICTIONARY
  5
237
330
E5
100
AcDbDictionary
280
     1
281
     1
  3
ACAD_XREC_ROUNDTRIP
360
238
  0
DICTIONARY
  5
B5
330
B4
100
AcDbDictionary
280
     1
281
     1
  3
BUMPTILE
360
B7
  3
DIFFUSETILE
360
B6
  3
OPACITYTILE
360
BA
  3
REFLECTIONTILE
360
B9
  3
REFRACTIONTILE
360
BB
  3
SPECULARTILE
360
B8
  0
DICTIONARY
  5
AD
330
AC
100
AcDbDictionary
280
     1
281
     1
  3
BUMPTILE
360
AF
  3
DIFFUSETILE
360
AE
  3
OPACITYTILE
360
B2
  3
REFLECTIONTILE
360
B1
  3
REFRACTIONTILE
360
B3
  3
SPECULARTILE
360
B0
  0
DICTIONARY
  5
BD
330
BC
100
AcDbDictionary
280
     1
281
     1
  3
BUMPTILE
360
BF
  3
DIFFUSETILE
360
BE
  3
OPACITYTILE
360
C2
  3
REFLECTIONTILE
360
C1
  3
REFRACTIONTILE
360
C3
  3
SPECULARTILE
360
C0
  0
DICTIONARY
  5
235
330
E3
100
AcDbDictionary
280
     1
281
     1
  3
ACAD_XREC_ROUNDTRIP
360
236
  0
DICTIONARY
  5
233
330
DF
100
AcDbDictionary
280
     1
281
     1
  3
ACAD_ROUNDTRIP_2008_TABLESTYLE_CELLSTYLEMAP
360
234
  0
XRECORD
  5
238
102
{ACAD_REACTORS
330
237
102
}
330
237
100
AcDbXrecord
280
     1
102
DISPLAYNAME
  1
Metric50
102
FLAGS
 90
        0
  0
XRECORD
  5
B7
102
{ACAD_REACTORS
330
B5
102
}
330
B5
100
AcDbXrecord
280
     1
270
     1
271
     1
  0
XRECORD
  5
B6
102
{ACAD_REACTORS
330
B5
102
}
330
B5
100
AcDbXrecord
280
     1
270
     1
271
     1
  0
XRECORD
  5
BA
102
{ACAD_REACTORS
330
B5
102
}
330
B5
100
AcDbXrecord
280
     1
270
     1
271
     1
  0
XRECORD
  5
B9
102
{ACAD_REACTORS
330
B5
102
}
330
B5
100
AcDbXrecord
280
     1
270
     1
271
     1
  0
XRECORD
  5
BB
102
{ACAD_REACTORS
330
B5
102
}
330
B5
100
AcDbXrecord
280
     1
270
     1
271
     1
  0
XRECORD
  5
B8
102
{ACAD_REACTORS
330
B5
102
}
330
B5
100
AcDbXrecord
280
     1
270
     1
271
     1
  0
XRECORD
  5
AF
102
{ACAD_REACTORS
330
AD
102
}
330
AD
100
AcDbXrecord
280
     1
270
     1
271
     1
  0
XRECORD
  5
AE
102
{ACAD_REACTORS
330
AD
102
}
330
AD
100
AcDbXrecord
280
     1
270
     1
271
     1
  0
XRECORD
  5
B2
102
{ACAD_REACTORS
330
AD
102
}
330
AD
100
AcDbXrecord
280
     1
270
     1
271
     1
  0
XRECORD
  5
B1
102
{ACAD_REACTORS
330
AD
102
}
330
AD
100
AcDbXrecord
280
     1
270
     1
271
     1
  0
XRECORD
  5
B3
102
{ACAD_REACTORS
330
AD
102
}
330
AD
100
AcDbXrecord
280
     1
270
     1
271
     1
  0
XRECORD
  5
B0
102
{ACAD_REACTORS
330
AD
102
}
330
AD
100
AcDbXrecord
280
     1
270
     1
271
     1
  0
XRECORD
  5
BF
102
{ACAD_REACTORS
330
BD
102
}
330
BD
100
AcDbXrecord
280
     1
270
     1
271
     1
  0
XRECORD
  5
BE
102
{ACAD_REACTORS
330
BD
102
}
330
BD
100
AcDbXrecord
280
     1
270
     1
271
     1
  0
XRECORD
  5
C2
102
{ACAD_REACTORS
330
BD
102
}
330
BD
100
AcDbXrecord
280
     1
270
     1
271
     1
  0
XRECORD
  5
C1
102
{ACAD_REACTORS
330
BD
102
}
330
BD
100
AcDbXrecord
280
     1
270
     1
271
     1
  0
XRECORD
  5
C3
102
{ACAD_REACTORS
330
BD
102
}
330
BD
100
AcDbXrecord
280
     1
270
     1
271
     1
  0
XRECORD
  5
C0
102
{ACAD_REACTORS
330
BD
102
}
330
BD
100
AcDbXrecord
280
     1
270
     1
271
     1
  0
XRECORD
  5
236
102
{ACAD_REACTORS
330
235
102
}
330
235
100
AcDbXrecord
280
     1
102
DISPLAYNAME
  1
Metric50
102
FLAGS
 90
        0
  0
CELLSTYLEMAP
  5
234
102
{ACAD_REACTORS
330
233
102
}
330
233
100
AcDbCellStyleMap
 90
        3
300
CELLSTYLE
  1
TABLEFORMAT_BEGIN
 90
        5
170
     1
 91
        0
 92
    32768
 62
   257
 93
        1
300
CONTENTFORMAT
  1
CONTENTFORMAT_BEGIN
 90
        0
 91
        0
 92
      512
 93
        0
300

 40
0.0
140
1.0
 94
        5
 62
     0
340
11
144
6.0
309
CONTENTFORMAT_END
171
     1
301
MARGIN
  1
CELLMARGIN_BEGIN
 40
1.5
 40
1.5
 40
1.5
 40
1.5
 40
4.5
 40
4.5
309
CELLMARGIN_END
 94
        6
 95
        1
302
GRIDFORMAT
  1
GRIDFORMAT_BEGIN
 90
        0
 91
        1
 62
     0
 92
       -2
340
0
 93
        0
 40
1.125
309
GRIDFORMAT_END
 95
        2
302
GRIDFORMAT
  1
GRIDFORMAT_BEGIN
 90
        0
 91
        1
 62
     0
 92
       -2
340
0
 93
        0
 40
1.125
309
GRIDFORMAT_END
 95
        4
302
GRIDFORMAT
  1
GRIDFORMAT_BEGIN
 90
        0
 91
        1
 62
     0
 92
       -2
340
0
 93
        0
 40
1.125
309
GRIDFORMAT_END
 95
        8
302
GRIDFORMAT
  1
GRIDFORMAT_BEGIN
 90
        0
 91
        1
 62
     0
 92
       -2
340
0
 93
        0
 40
1.125
309
GRIDFORMAT_END
 95
       16
302
GRIDFORMAT
  1
GRIDFORMAT_BEGIN
 90
        0
 91
        1
 62
     0
 92
       -2
340
0
 93
        0
 40
1.125
309
GRIDFORMAT_END
 95
       32
302
GRIDFORMAT
  1
GRIDFORMAT_BEGIN
 90
        0
 91
        1
 62
     0
 92
       -2
340
0
 93
        0
 40
1.125
309
GRIDFORMAT_END
309
TABLEFORMAT_END
  1
CELLSTYLE_BEGIN
 90
        1
 91
        1
300
_TITLE
309
CELLSTYLE_END
300
CELLSTYLE
  1
TABLEFORMAT_BEGIN
 90
        5
170
     1
 91
        0
 92
        0
 62
   257
 93
        1
300
CONTENTFORMAT
  1
CONTENTFORMAT_BEGIN
 90
        0
 91
        0
 92
      512
 93
        0
300

 40
0.0
140
1.0
 94
        5
 62
     0
340
11
144
4.5
309
CONTENTFORMAT_END
171
     1
301
MARGIN
  1
CELLMARGIN_BEGIN
 40
1.5
 40
1.5
 40
1.5
 40
1.5
 40
4.5
 40
4.5
309
CELLMARGIN_END
 94
        6
 95
        1
302
GRIDFORMAT
  1
GRIDFORMAT_BEGIN
 90
        0
 91
        1
 62
     0
 92
       -2
340
0
 93
        0
 40
1.125
309
GRIDFORMAT_END
 95
        2
302
GRIDFORMAT
  1
GRIDFORMAT_BEGIN
 90
        0
 91
        1
 62
     0
 92
       -2
340
0
 93
        0
 40
1.125
309
GRIDFORMAT_END
 95
        4
302
GRIDFORMAT
  1
GRIDFORMAT_BEGIN
 90
        0
 91
        1
 62
     0
 92
       -2
340
0
 93
        0
 40
1.125
309
GRIDFORMAT_END
 95
        8
302
GRIDFORMAT
  1
GRIDFORMAT_BEGIN
 90
        0
 91
        1
 62
     0
 92
       -2
340
0
 93
        0
 40
1.125
309
GRIDFORMAT_END
 95
       16
302
GRIDFORMAT
  1
GRIDFORMAT_BEGIN
 90
        0
 91
        1
 62
     0
 92
       -2
340
0
 93
        0
 40
1.125
309
GRIDFORMAT_END
 95
       32
302
GRIDFORMAT
  1
GRIDFORMAT_BEGIN
 90
        0
 91
        1
 62
     0
 92
       -2
340
0
 93
        0
 40
1.125
309
GRIDFORMAT_END
309
TABLEFORMAT_END
  1
CELLSTYLE_BEGIN
 90
        2
 91
        1
300
_HEADER
309
CELLSTYLE_END
300
CELLSTYLE
  1
TABLEFORMAT_BEGIN
 90
        5
170
     1
 91
        0
 92
        0
 62
   257
 93
        1
300
CONTENTFORMAT
  1
CONTENTFORMAT_BEGIN
 90
        0
 91
        0
 92
      512
 93
        0
300

 40
0.0
140
1.0
 94
        2
 62
     0
340
11
144
4.5
309
CONTENTFORMAT_END
171
     1
301
MARGIN
  1
CELLMARGIN_BEGIN
 40
1.5
 40
1.5
 40
1.5
 40
1.5
 40
4.5
 40
4.5
309
CELLMARGIN_END
 94
        6
 95
        1
302
GRIDFORMAT
  1
GRIDFORMAT_BEGIN
 90
        0
 91
        1
 62
     0
 92
       -2
340
0
 93
        0
 40
1.125
309
GRIDFORMAT_END
 95
        2
302
GRIDFORMAT
  1
GRIDFORMAT_BEGIN
 90
        0
 91
        1
 62
     0
 92
       -2
340
0
 93
        0
 40
1.125
309
GRIDFORMAT_END
 95
        4
302
GRIDFORMAT
  1
GRIDFORMAT_BEGIN
 90
        0
 91
        1
 62
     0
 92
       -2
340
0
 93
        0
 40
1.125
309
GRIDFORMAT_END
 95
        8
302
GRIDFORMAT
  1
GRIDFORMAT_BEGIN
 90
        0
 91
        1
 62
     0
 92
       -2
340
0
 93
        0
 40
1.125
309
GRIDFORMAT_END
 95
       16
302
GRIDFORMAT
  1
GRIDFORMAT_BEGIN
 90
        0
 91
        1
 62
     0
 92
       -2
340
0
 93
        0
 40
1.125
309
GRIDFORMAT_END
 95
       32
302
GRIDFORMAT
  1
GRIDFORMAT_BEGIN
 90
        0
 91
        1
 62
     0
 92
       -2
340
0
 93
        0
 40
1.125
309
GRIDFORMAT_END
309
TABLEFORMAT_END
  1
CELLSTYLE_BEGIN
 90
        3
 91
        2
300
_DATA
309
CELLSTYLE_END
  0
ENDSEC
  0
EOF
